<svg xmlns="http://www.w3.org/2000/svg" xmlns:xlink="http://www.w3.org/1999/xlink" viewBox="0 0 119.56 147.48"><defs><style>.cls-1,.cls-6{fill:none;}.cls-2,.cls-7{fill:#fff;}.cls-3{fill:#f4f4f4;}.cls-4{clip-path:url(#clip-path);}.cls-5{fill:#e2e2e2;}.cls-6,.cls-7{stroke:#cacccc;stroke-miterlimit:10;stroke-width:1.86px;}</style><clipPath id="clip-path"><path class="cls-1" d="M20.27,110.62a55.76,55.76,0,1,1,4.1,3.09"/></clipPath></defs><title>Asset 4</title><g id="Layer_2" data-name="Layer 2"><g id="Layer_1-2" data-name="Layer 1"><path class="cls-1" d="M31.93,113.56a55.9,55.9,0,1,1,31.58,9.87,55.83,55.83,0,0,1-31.58-9.87"/><polygon class="cls-2" points="65.74 39.77 91.04 26.04 82.11 26.04 82.11 2.23 65.74 2.23 65 2.23 48.63 2.23 48.63 26.04 39.7 26.04 65 39.77 65 40.18 65.37 39.98 65.74 40.18 65.74 39.77"/><path class="cls-3" d="M20.27,110.62a55.76,55.76,0,1,1,4.1,3.09"/><g class="cls-4"><path class="cls-2" d="M90.15,112.55a34,34,0,1,1-34-34A34,34,0,0,1,90.15,112.55Z"/><path class="cls-5" d="M38.79,83.62s19.53,16.64,34,0c0,.72.72-2.89,10.13,7.23-.72-.72-25.32,24.59-52.08-1.45Z"/><path class="cls-6" d="M90.15,112.55a34,34,0,1,1-34-34A34,34,0,0,1,90.15,112.55Z"/><circle class="cls-7" cx="56.15" cy="67.71" r="23.15"/><path class="cls-7" d="M33,74.64s10.65-6.94,8.42-17.35c.74-1.49,8.18,7.44,29-.74.74,0-1.73,13.2,8.44,15.53"/></g><polygon class="cls-2" points="56.27 37.54 81.56 23.81 72.63 23.81 72.63 0 56.27 0 55.52 0 39.15 0 39.15 23.81 30.22 23.81 55.52 37.54 55.52 37.95 55.89 37.74 56.27 37.95 56.27 37.54"/></g></g></svg>