<svg xmlns="http://www.w3.org/2000/svg" xmlns:xlink="http://www.w3.org/1999/xlink" viewBox="0 0 39 52.05"><defs><style>.cls-1,.cls-6{fill:none;}.cls-2{fill:#f4f4f4;}.cls-3{clip-path:url(#clip-path);}.cls-4,.cls-7{fill:#fff;}.cls-5{fill:#e2e2e2;}.cls-6,.cls-7{stroke:#cacccc;stroke-miterlimit:10;stroke-width:1.86px;}</style><clipPath id="clip-path"><path class="cls-1" d="M7.07,38.59A19.37,19.37,0,1,1,8.5,39.67"/></clipPath></defs><title>add-contact</title><g id="Layer_2" data-name="Layer 2"><g id="Layer_1-2" data-name="Layer 1"><path class="cls-2" d="M7.07,38.59A19.37,19.37,0,1,1,8.5,39.67"/><g class="cls-3"><path class="cls-4" d="M31.45,39.26A11.87,11.87,0,1,1,19.59,27.41,11.86,11.86,0,0,1,31.45,39.26Z"/><path class="cls-5" d="M13.53,29.17s6.82,5.81,11.86,0c0,.25.25-1,3.54,2.52-.26-.25-8.84,8.58-18.17-.5Z"/><path class="cls-6" d="M31.45,39.26A11.87,11.87,0,1,1,19.59,27.41,11.86,11.86,0,0,1,31.45,39.26Z"/><circle class="cls-7" cx="19.59" cy="23.62" r="8.07"/><path class="cls-7" d="M11.51,26s3.72-2.42,2.94-6.05c.26-.52,2.86,2.59,10.12-.26.26,0-.6,4.6,2.95,5.41"/></g><polygon class="cls-4" points="19.63 13.1 28.45 8.31 25.34 8.31 25.34 0 19.63 0 19.37 0 13.66 0 13.66 8.31 10.54 8.31 19.37 13.1 19.37 13.24 19.5 13.17 19.63 13.24 19.63 13.1"/></g></g></svg>