<svg xmlns="http://www.w3.org/2000/svg" xmlns:xlink="http://www.w3.org/1999/xlink" viewBox="0 0 64.87 65.84"><defs><style>.cls-1,.cls-8{fill:none;}.cls-2{fill:#b7ecf9;}.cls-3{clip-path:url(#clip-path);}.cls-4{fill:#57c7e5;}.cls-5{fill:#67def9;}.cls-6{clip-path:url(#clip-path-2);}.cls-7{fill:#fff;}.cls-8{stroke:#0dbaec;stroke-miterlimit:10;stroke-width:1.6px;}</style><clipPath id="clip-path"><path class="cls-1" d="M11,53.7a30.25,30.25,0,1,1,2.23,1.68"/></clipPath><clipPath id="clip-path-2"><path class="cls-1" d="M30.33,18.49c-5.14,0-12.85,2.34-12.85,11.69,0,4.67,10.28,21,12.85,25.71,2.57-4.67,12.85-21,12.85-25.71C43.18,20.82,35.47,18.49,30.33,18.49Zm0,15.78a4.09,4.09,0,1,1,4.09-4.09A4.09,4.09,0,0,1,30.33,34.26Z"/></clipPath></defs><title>Asset 18</title><g id="Layer_2" data-name="Layer 2"><g id="Layer_1-2" data-name="Layer 1"><path class="cls-1" d="M17.33,55.3a30.33,30.33,0,1,1,17.14,5.36A30.3,30.3,0,0,1,17.33,55.3"/><path class="cls-2" d="M11,53.7a30.25,30.25,0,1,1,2.23,1.68"/><g class="cls-3"><path class="cls-4" d="M30.86,56.57,43.12,44.34a13.41,13.41,0,0,1,10.36-3.89h0a6.35,6.35,0,0,1,4.76,10h0A6.35,6.35,0,0,1,54,53.08Z"/></g><path class="cls-5" d="M30.33,18.49c-5.14,0-12.85,2.34-12.85,11.69,0,4.67,10.28,21,12.85,25.71,2.57-4.67,12.85-21,12.85-25.71C43.18,20.82,35.47,18.49,30.33,18.49Zm0,15.78a4.09,4.09,0,1,1,4.09-4.09A4.09,4.09,0,0,1,30.33,34.26Z"/><g class="cls-6"><path class="cls-7" d="M33.85,8.41S7.66,27.48,37.07,65.84c-.23,0-28.25-21.59-28.25-21.59L11.57,10Z"/></g><path class="cls-8" d="M30.33,18.49c-5.14,0-12.85,2.34-12.85,11.69,0,4.67,10.28,21,12.85,25.71,2.57-4.67,12.85-21,12.85-25.71C43.18,20.82,35.47,18.49,30.33,18.49Zm0,15.78a4.09,4.09,0,1,1,4.09-4.09A4.09,4.09,0,0,1,30.33,34.26Z"/></g></g></svg>