<svg xmlns="http://www.w3.org/2000/svg" viewBox="0 0 22 22"><defs><style>.cls-1,.cls-2{fill:#fff;}.cls-1{stroke:#fff;stroke-miterlimit:10;stroke-width:2px;}.cls-3{fill:#10baec;}</style></defs><title>checked-on blue</title><g id="Layer_2" data-name="Layer 2"><g id="Master_Objects" data-name="Master Objects"><rect class="cls-1" x="1" y="1" width="20" height="20"/><g id="_Group_" data-name="&lt;Group&gt;"><path id="_Compound_Path_" data-name="&lt;Compound Path&gt;" class="cls-2" d="M17.41,6.45l.32.46a25.14,25.14,0,0,0-4.39,4.57,31.42,31.42,0,0,0-3.69,5.77s-.66,1.2-1.28,1.2-1-1-1.08-1.28L7,16.57a9.22,9.22,0,0,0-1-1.91,2.31,2.31,0,0,0-1.06-.82,2.72,2.72,0,0,1,1.83-1.05q.71,0,1.58,1.93l.29.65a26.79,26.79,0,0,1,4-5.11A22.42,22.42,0,0,1,17.41,6.45Z"/><path id="_Compound_Path_2" data-name="&lt;Compound Path&gt;" class="cls-3" d="M17.41,5.17l.32.46a25.14,25.14,0,0,0-4.39,4.57A31.42,31.42,0,0,0,9.65,16s-.66,1.2-1.28,1.2-1-1-1.08-1.28L7,15.29a9.22,9.22,0,0,0-1-1.91,2.31,2.31,0,0,0-1.06-.82,2.72,2.72,0,0,1,1.83-1.05q.71,0,1.58,1.93l.29.65a26.79,26.79,0,0,1,4-5.11A22.42,22.42,0,0,1,17.41,5.17Z"/></g></g></g></svg>