<svg xmlns="http://www.w3.org/2000/svg" viewBox="0 0 78.82 45.86"><defs><style>.cls-1{fill:#0096d4;}</style></defs><title>cisco-logo</title><g id="Layer_2" data-name="Layer 2"><g id="global_nav" data-name="global nav"><path id="_Path_" data-name="&lt;Path&gt;" class="cls-1" d="M78.82,14.66a2,2,0,0,0-4,0v3.92a2,2,0,0,0,4,0Z"/><rect id="_Path_2" data-name="&lt;Path&gt;" class="cls-1" x="22.71" y="30.36" width="4.01" height="14.7"/><path id="_Path_3" data-name="&lt;Path&gt;" class="cls-1" d="M54.78,35c-1.34-.08-2.07-.8-3.78-.8a4.14,4.14,0,0,0-4.3,4c0,2.21,2.12,4,4.49,4,1.68,0,2.25-.7,3.59-.79v4a33.61,33.61,0,0,1-4,.53,7.7,7.7,0,0,1-7.93-7.72,7.89,7.89,0,0,1,8.12-7.72,32.51,32.51,0,0,1,3.84.53Z"/><path id="_Path_4" data-name="&lt;Path&gt;" class="cls-1" d="M17.37,35a10,10,0,0,0-3.73-.8,4.11,4.11,0,0,0-4.28,4,4.28,4.28,0,0,0,4.46,4,8.69,8.69,0,0,0,3.55-.79v4a32.55,32.55,0,0,1-4,.53,7.68,7.68,0,0,1-7.9-7.72,7.85,7.85,0,0,1,8.08-7.72,31.84,31.84,0,0,1,3.81.53Z"/><path id="_Compound_Path_" data-name="&lt;Compound Path&gt;" class="cls-1" d="M72.49,38.13a7.48,7.48,0,1,1-15,0,7.48,7.48,0,1,1,15,0M65,34.21a3.93,3.93,0,1,0,3.69,3.92A3.76,3.76,0,0,0,65,34.21"/><path id="_Path_5" data-name="&lt;Path&gt;" class="cls-1" d="M40.08,34.07a16.74,16.74,0,0,0-3.18-.45c-1.44,0-2.41.5-2.41,1.22,0,.91,1,1.23,1.54,1.42l.94.33a4.42,4.42,0,0,1,3.35,4.26c0,3.75-2.39,5-5.13,5a9.38,9.38,0,0,1-3.12-.41V42a5,5,0,0,0,2.63.55c1.77,0,2.22-.55,2.22-1.39S36,40,35.14,39.69c-.22-.07-.64-.18-.86-.26-2-.66-3.7-1.89-3.7-4.36,0-2.79,2.35-4.66,5.65-4.66a18.49,18.49,0,0,1,3.85.48Z"/><path id="_Path_6" data-name="&lt;Path&gt;" class="cls-1" d="M4,14.66A2,2,0,0,0,2,12.8a2,2,0,0,0-2,1.86v3.92a2,2,0,0,0,2,1.87,2,2,0,0,0,2-1.87Z"/><path id="_Path_7" data-name="&lt;Path&gt;" class="cls-1" d="M13.36,9.52a2,2,0,0,0-4,0v9.05a2,2,0,0,0,4,0Z"/><path id="_Path_8" data-name="&lt;Path&gt;" class="cls-1" d="M32.06,9.52a2,2,0,0,0-4,0v9.05a2,2,0,0,0,4,0Z"/><path id="_Path_9" data-name="&lt;Path&gt;" class="cls-1" d="M41.42,14.66a2,2,0,0,0-4,0v3.92a2,2,0,0,0,4,0Z"/><path id="_Path_10" data-name="&lt;Path&gt;" class="cls-1" d="M50.77,9.52a1.75,1.75,0,0,0-2-1.86,1.74,1.74,0,0,0-2,1.86v9.05a1.74,1.74,0,0,0,2,1.87,1.75,1.75,0,0,0,2-1.87Z"/><path id="_Path_11" data-name="&lt;Path&gt;" class="cls-1" d="M60.12,1.91a2,2,0,0,0-4,0V22.24a2,2,0,0,0,4,0Z"/><path id="_Path_12" data-name="&lt;Path&gt;" class="cls-1" d="M69.47,9.52a2,2,0,0,0-4,0v9.05a2,2,0,0,0,4,0Z"/><path id="_Path_13" data-name="&lt;Path&gt;" class="cls-1" d="M22.71,1.91a1.75,1.75,0,0,0-2-1.91,1.76,1.76,0,0,0-2,1.91V22.24a1.76,1.76,0,0,0,2,1.91,1.76,1.76,0,0,0,2-1.91Z"/></g></g></svg>