<?xml version="1.0" encoding="utf-8"?>
<!-- Generator: Adobe Illustrator 21.1.0, SVG Export Plug-In . SVG Version: 6.00 Build 0)  -->
<svg version="1.1" id="Layer_1" xmlns="http://www.w3.org/2000/svg" xmlns:xlink="http://www.w3.org/1999/xlink" x="0px" y="0px"
	 viewBox="0 0 18.1 21" style="enable-background:new 0 0 18.1 21;" xml:space="preserve">
<style type="text/css">
	.st0{fill-rule:evenodd;clip-rule:evenodd;fill:#CCCCCB;}
</style>
<path class="st0" d="M18.1,19c0,0,0,2-2,2c-2,0-12.4,0-14,0c-2,0-2-2-2-2s-1.1-6.7,5.6-8.6C4.7,9.3,4.1,8.8,4.1,7c0-3.3,2.2-7,5-7
	s5,3.7,5,7c0,1.8-0.6,2.3-1.6,3.4C19.1,12.3,18.1,19,18.1,19z M9.1,2c0,0-3,1-3,5s3,3,3,3s3,1,3-3S9.1,2,9.1,2z M9.1,12
	c-8,0-7,7-7,7h14C16.1,19,17.1,12,9.1,12z"/>
</svg>
