<svg xmlns="http://www.w3.org/2000/svg" viewBox="0 0 60 57.85"><defs><style>.cls-1{fill:#00bbeb;}</style></defs><title>Current-balance_1</title><g id="Layer_2" data-name="Layer 2"><g id="Layer_1-2" data-name="Layer 1"><path class="cls-1" d="M12.85,16.88C23,12.45,33.05,7.83,43.11,3.2,45,2.32,46,2.61,46.84,4.59c1.58,3.8,3.46,7.48,5,11.29a3.83,3.83,0,0,0,4,2.73c-2.62-5.73-5-11.33-7.76-16.78C47.21,0,45.25-.43,43.27.44c-2.52,1.1-5,2.25-7.52,3.38L5.34,17.63l.24,1C8,18.08,10.59,17.86,12.85,16.88Z"/><path class="cls-1" d="M60,38.1a1.92,1.92,0,0,1,0-.24c.12-1.83-.69-2.67-2.57-2.63-2.66.07-5.33,0-8,0H43.36c-4.67,0-4.57,0-4.66,4.6-.05,2.3.9,2.95,3,2.9,4.6-.09,9.2,0,13.81,0S60.08,42.69,60,38.1Z"/><path class="cls-1" d="M41.21,45.62c-3.9,0-5.37-1.53-5.38-5.49,0-.73,0-1.46,0-2.18,0-3.66,1.52-5.15,5.18-5.16,5.26,0,10.51,0,16.2,0,0-3.05,0-5.79,0-8.52,0-3.25-1.3-4.56-4.57-4.57q-23.8,0-47.61,0c-3.81,0-5,1.29-5,5.18Q0,38.72,0,52.56c0,4,1.25,5.26,5.2,5.28,7,0,14.09,0,21.13,0,8.74,0,17.49,0,26.23,0,2.8,0,4.44-1.12,4.57-3.31.16-2.88,0-5.78,0-8.89C51.7,45.63,46.45,45.64,41.21,45.62Z"/></g></g></svg>