<svg xmlns="http://www.w3.org/2000/svg" viewBox="0 0 60 57.85"><defs><style>.cls-1{fill:#00bbeb;}</style></defs><title>Current-balance-001</title><g id="Layer_2" data-name="Layer 2"><g id="Layer_1-2" data-name="Layer 1"><path class="cls-1" d="M57.22,32.78c-5.69,0-10.94,0-16.2,0-3.66,0-5.13,1.5-5.18,5.16,0,.72,0,1.45,0,2.18,0,4,1.48,5.48,5.38,5.49,5.24,0,10.49,0,16,0,0,3.11.12,6,0,8.89-.13,2.19-1.77,3.3-4.57,3.31-8.74,0-17.49,0-26.23,0-7,0-14.09,0-21.13,0-3.95,0-5.19-1.3-5.2-5.28Q0,38.71,0,24.87C0,21,1.22,19.69,5,19.69q23.8,0,47.61,0c3.27,0,4.54,1.32,4.57,4.57C57.24,27,57.22,29.73,57.22,32.78ZM5.58,18.65c2.43-.57,5-.79,7.27-1.77C23,12.45,33.05,7.83,43.11,3.2,45,2.32,46,2.61,46.84,4.59c1.59,3.8,3.46,7.48,5,11.29a3.83,3.83,0,0,0,4,2.73c-2.62-5.73-5-11.33-7.76-16.78C47.21,0,45.25-.43,43.27.44c-2.52,1.1-5,2.25-7.52,3.38L5.34,17.63Zm43.84,16.6c2.66,0,5.33,0,8,0,1.88,0,2.69.8,2.57,2.63a1.92,1.92,0,0,0,0,.24c.1,4.59.08,4.61-4.45,4.61s-9.21-.05-13.81,0c-2.12,0-3.07-.6-3-2.9.09-4.6,0-4.6,4.66-4.6ZM45.1,39.14c-1.41-.8-2.18-1.58-2.87-1.52s-1.61,1.19-1.51,1.65A2.64,2.64,0,0,0,42.43,41C43.05,41.1,43.78,40.13,45.1,39.14Z"/></g></g></svg>