<svg id="Layer_1" data-name="Layer 1" xmlns="http://www.w3.org/2000/svg" viewBox="0 0 16 16"><defs><style>.cls-1{fill:#00bbeb;}</style></defs><title>cis-direct-selling-usage-invoice(1)</title><path class="cls-1" d="M9,0V2.41A5.58,5.58,0,0,1,13.66,8a5.71,5.71,0,0,1-.39,2l2,1.2a7.53,7.53,0,0,0,.7-3.3A7.86,7.86,0,0,0,9,0M7.81,13.59A5.51,5.51,0,0,1,2.34,8,5.58,5.58,0,0,1,7,2.41V0A7.85,7.85,0,0,0,0,8.4,8,8,0,0,0,7.67,16a7.83,7.83,0,0,0,6.46-3.3l-2-1.21a5.46,5.46,0,0,1-4.29,2.09M5.5,7.93H7.28V5A.72.72,0,0,1,8,4.27H8A.72.72,0,0,1,8.71,5V7.93H10.5c.32,0,.43.23.25.48L8,12.31,5.25,8.41c-.18-.25-.07-.48.25-.48"/></svg>