<?xml version="1.0" encoding="utf-8"?>
<!-- Generator: Adobe Illustrator 21.1.0, SVG Export Plug-In . SVG Version: 6.00 Build 0)  -->
<svg version="1.1" id="Layer_1" xmlns="http://www.w3.org/2000/svg" xmlns:xlink="http://www.w3.org/1999/xlink" x="0px" y="0px"
	 viewBox="0 0 17.6 17.6" style="enable-background:new 0 0 17.6 17.6;" xml:space="preserve">
<style type="text/css">
	.st0{fill-rule:evenodd;clip-rule:evenodd;fill:#FFFFFF;}
</style>
<g id="XMLID_586_">
	<g>
		<path class="st0" d="M2.3,12.1L0,17.6l5.7-2.4c0,0-0.4-1.1-1.2-1.9C3.6,12.4,2.3,12.1,2.3,12.1z M11.8,2.5
			c-2.7,2.7-7.7,7.7-8.3,8.3c0,0,1.4,0.7,2,1.4c0.7,0.7,1.3,2,1.3,2c0.5-0.6,5.6-5.6,8.3-8.3c-0.3-0.7-0.8-1.5-1.4-2.1
			C13.2,3.2,12.4,2.8,11.8,2.5z M16.9,0.7c-1-1-2.4-0.9-3.4,0.1c0,0-0.2,0.2-0.5,0.5C13.7,1.6,14.4,2,15,2.6c0.6,0.6,1.1,1.4,1.4,2
			c0.3-0.3,0.5-0.5,0.5-0.5C17.8,3.1,17.9,1.6,16.9,0.7z"/>
	</g>
</g>
</svg>
