<svg xmlns="http://www.w3.org/2000/svg" viewBox="0 0 11.63 11.63"><defs><style>.cls-1{fill:#006fae;fill-rule:evenodd;}</style></defs><title>edit-normal</title><g id="Layer_2" data-name="Layer 2"><g id="Layer_1-2" data-name="Layer 1"><g id="_Group_" data-name="&lt;Group&gt;"><path class="cls-1" d="M1.55,8,0,11.63,3.74,10a4,4,0,0,0-.81-1.27A3.5,3.5,0,0,0,1.55,8ZM7.8,1.64,2.32,7.12A5.83,5.83,0,0,1,3.67,8,5.51,5.51,0,0,1,4.5,9.3L10,3.83a5,5,0,0,0-.92-1.37A4.07,4.07,0,0,0,7.8,1.64ZM11.18.45A1.55,1.55,0,0,0,9,.49L8.6.85a4.27,4.27,0,0,1,1.28.84A4.85,4.85,0,0,1,10.78,3l.36-.36A1.55,1.55,0,0,0,11.18.45Z"/></g></g></g></svg>