<svg xmlns="http://www.w3.org/2000/svg" viewBox="0 0 35 35"><defs><style>.cls-1{fill:#676767;}.cls-2{fill:#fff;}</style></defs><title>filter</title><g id="Layer_2" data-name="Layer 2"><g id="content"><circle class="cls-1" cx="17.5" cy="17.5" r="17.5"/><path class="cls-2" d="M19.23,13.27c-.54.8-1,1.53-1.3,2-2.2,3.37-2.2,3.45-2.2,4.17v3.33H14.27V19.4c0-.72,0-.8-2.2-4.17-.28-.43-.76-1.16-1.3-2h8.47M22.31,11H7.69a.64.64,0,0,0-.57,1C8.74,14.19,12,19.26,12,19.4v5a.63.63,0,0,0,.63.63h4.73a.64.64,0,0,0,.64-.64v-5c0-.15,3.26-5.21,4.88-7.4a.64.64,0,0,0-.57-1Z"/><path class="cls-2" d="M23,16v2h4V16Z"/><path class="cls-2" d="M20,21h6V19H20Z"/><path class="cls-2" d="M20,25h6V23H20Z"/></g></g></svg>