<svg xmlns="http://www.w3.org/2000/svg" viewBox="0 0 23.85 17"><defs><style>.cls-1{fill:#fff;}</style></defs><title>Asset 19</title><g id="Layer_2" data-name="Layer 2"><g id="content"><path class="cls-1" d="M15.08,2.27c-.82,1.26-1.61,2.51-2,3.17-2.48,4-2.48,4-2.48,4.77v4.53H8.1V10.2c0-.73,0-.81-2.48-4.77-.41-.66-1.2-1.91-2-3.17H15.08M17.86,0H.81A.77.77,0,0,0,.14,1.21C2,3.87,5.83,10,5.83,10.2v6a.77.77,0,0,0,.77.77H12a.79.79,0,0,0,.78-.78v-6c0-.18,3.8-6.33,5.69-9A.77.77,0,0,0,17.86,0Z"/><path class="cls-1" d="M18.85,6V8h5V6Z"/><path class="cls-1" d="M15.85,12h7V10h-7Z"/><path class="cls-1" d="M14.85,16h8V14h-8Z"/></g></g></svg>