<svg xmlns="http://www.w3.org/2000/svg" viewBox="0 0 19.91 15"><defs><style>.cls-1{fill:none;}.cls-2{fill:#333;}</style></defs><title>filter</title><g id="Layer_2" data-name="Layer 2"><g id="Page_Content" data-name="Page Content"><path class="cls-1" d="M4.86,5.11C7,8.6,6.91,9,6.91,9.59V13h2V9.59c0-.62.08-1,2.21-4.48C11.47,4.52,12.23,3,12.94,2H3.19A35,35,0,0,1,4.86,5.11Z"/><path class="cls-1" d="M4.86,5.11C7,8.6,6.91,9,6.91,9.59V13h2V9.59c0-.62.08-1,2.21-4.48C11.47,4.52,12.23,3,12.94,2H3.19A35,35,0,0,1,4.86,5.11Z"/><path class="cls-2" d="M15.37,0H.76A1,1,0,0,0,.11,1.36c1.62,2.35,4.8,8.07,4.8,8.23v5.13a.28.28,0,0,0,.28.28h5.19a.53.53,0,0,0,.53-.53V9.59c0-.16,3.34-5.88,5-8.23C16.18.91,15.93,0,15.37,0ZM11.21,4.47C9,8,8.91,8.41,8.91,9v4h-3V9c0-.63.09-1-2.13-4.57-.37-.6-1.22-2.11-2-3.47H13.29C12.55,2.28,11.58,3.88,11.21,4.47Z"/><rect class="cls-2" x="12.91" y="13" width="7" height="2"/><rect class="cls-2" x="13.91" y="9" width="6" height="2"/><rect class="cls-2" x="15.91" y="5" width="4" height="2"/></g></g></svg>