<svg xmlns="http://www.w3.org/2000/svg" xmlns:xlink="http://www.w3.org/1999/xlink" viewBox="0 0 48.96 46.2"><defs><style>.cls-1,.cls-6{fill:none;}.cls-2{fill:#b7ecf9;}.cls-3{clip-path:url(#clip-path);}.cls-4{fill:#57c7e5;}.cls-5{fill:#67def9;}.cls-5,.cls-6,.cls-7{stroke:#0dbaec;stroke-miterlimit:10;stroke-width:1.11px;}.cls-7{fill:#fff;}</style><clipPath id="clip-path"><path class="cls-1" d="M14.65,37.14a20.91,20.91,0,1,1,1.54,1.16"/></clipPath></defs><title>Asset 7</title><g id="Layer_2" data-name="Layer 2"><g id="Layer_1-2" data-name="Layer 1"><path class="cls-2" d="M14.64,37.12a20.91,20.91,0,1,1,1.54,1.16"/><g class="cls-3"><rect class="cls-4" x="1.91" y="21.56" width="33.51" height="20.59" rx="1.44" ry="1.44" transform="translate(-8.4 6.75) rotate(-16.78)"/><rect class="cls-5" x="4.21" y="17.29" width="32.81" height="21.29" rx="1.07" ry="1.07" transform="translate(-7.19 7.14) rotate(-16.78)"/><path class="cls-6" d="M12.84,19.1,12,16.17a.72.72,0,0,1,.48-.9l8-2.4a.72.72,0,0,1,.9.48l.9,3"/><rect class="cls-7" x="27.55" y="14.62" width="3.84" height="21.29" transform="translate(-6.04 9.59) rotate(-16.78)"/><rect class="cls-7" x="10.17" y="19.86" width="3.84" height="21.29" transform="translate(-8.29 4.79) rotate(-16.78)"/></g></g></g></svg>