<?xml version="1.0" encoding="utf-8"?>
<!-- Generator: Adobe Illustrator 22.0.1, SVG Export Plug-In . SVG Version: 6.00 Build 0)  -->
<svg version="1.1" id="Layer_1" xmlns="http://www.w3.org/2000/svg" xmlns:xlink="http://www.w3.org/1999/xlink" x="0px" y="0px"
	 viewBox="0 0 56 56" style="enable-background:new 0 0 56 56;" xml:space="preserve">
<style type="text/css">
	.st0{fill:#B7ECF9;}
	.st1{fill:#67DEF9;stroke:#0DBAEC;stroke-width:1.1068;stroke-miterlimit:10;}
</style>
<circle class="st0" cx="28" cy="28" r="28"/>
<g>
	<path class="st1" d="M37.8,20.3l-5.6-5.6c-0.1-0.1-0.2-0.2-0.4-0.2H20.2c-1.2,0-2.2,1-2.2,2.2v22.6c0,1.2,1,2.2,2.2,2.2h15.6
		c1.2,0,2.2-1,2.2-2.2V20.7C38,20.5,37.9,20.4,37.8,20.3z M32,16.8l3.7,3.7h-2.5c-0.6,0-1.1-0.5-1.1-1.1V16.8z M35.9,40.5H20.1
		c-0.6,0-1.1-0.5-1.1-1.1V17.6c0-0.6,0.5-1.1,1.1-1.1H31v2.8c0,1.2,1,2.2,2.2,2.2H37v17.9C37,40,36.5,40.5,35.9,40.5z"/>
	<path class="st1" d="M32.8,30.5h-11c-0.3,0-0.5,0.2-0.5,0.5s0.2,0.5,0.5,0.5h11c0.3,0,0.5-0.2,0.5-0.5S33,30.5,32.8,30.5z"/>
	<path class="st1" d="M32.8,26.5h-11c-0.3,0-0.5,0.2-0.5,0.5s0.2,0.5,0.5,0.5h11c0.3,0,0.5-0.2,0.5-0.5S33,26.5,32.8,26.5z"/>
	<path class="st1" d="M32.8,33.5h-11c-0.3,0-0.5,0.2-0.5,0.5s0.2,0.5,0.5,0.5h11c0.3,0,0.5-0.2,0.5-0.5S33,33.5,32.8,33.5z"/>
	<path class="st1" d="M27.5,36.5h-6c-0.3,0-0.5,0.2-0.5,0.5s0.2,0.5,0.5,0.5h6c0.3,0,0.5-0.2,0.5-0.5S27.8,36.5,27.5,36.5z"/>
	<path class="st1" d="M33,23.5h-6c-0.3,0-0.5,0.2-0.5,0.5s0.2,0.5,0.5,0.5h6c0.3,0,0.5-0.2,0.5-0.5S33.3,23.5,33,23.5z"/>
	<path class="st1" d="M22.5,23.5h-1c-0.3,0-0.5,0.2-0.5,0.5s0.2,0.5,0.5,0.5H22c0,0.3,0.2,0.5,0.5,0.5s0.5-0.2,0.5-0.5v-0.1
		c0.6-0.2,1-0.8,1-1.4c0-0.8-0.7-1.5-1.5-1.5c-0.3,0-0.5-0.2-0.5-0.5s0.2-0.5,0.5-0.5h1c0.3,0,0.5-0.2,0.5-0.5s-0.2-0.5-0.5-0.5H23
		c0-0.3-0.2-0.5-0.5-0.5S22,19.2,22,19.5v0.1c-0.6,0.2-1,0.8-1,1.4c0,0.8,0.7,1.5,1.5,1.5c0.3,0,0.5,0.2,0.5,0.5
		S22.8,23.5,22.5,23.5z"/>
</g>
</svg>
