<svg xmlns="http://www.w3.org/2000/svg" xmlns:xlink="http://www.w3.org/1999/xlink" viewBox="0 0 61.95 57"><defs><style>.cls-1{fill:none;}.cls-2{fill:#f4f4f4;}.cls-3{clip-path:url(#clip-path);}.cls-4{fill:#e5e5e5;}.cls-5{fill:#c6c6c6;}.cls-6{fill:#a3a3a3;}</style><clipPath id="clip-path"><path class="cls-1" d="M10.29,49.58a28.11,28.11,0,0,1-10-21.52A27.82,27.82,0,0,1,27.85,0,27.82,27.82,0,0,1,55.54,27.94,27.82,27.82,0,0,1,28,56a27.33,27.33,0,0,1-15.64-4.87"/></clipPath></defs><title>invoice</title><g id="Layer_2" data-name="Layer 2"><g id="Page_Content" data-name="Page Content"><path class="cls-2" d="M10,49.58A28.11,28.11,0,0,1,0,28.06,27.82,27.82,0,0,1,27.58,0,27.82,27.82,0,0,1,55.27,27.94,27.82,27.82,0,0,1,27.69,56a27.31,27.31,0,0,1-15.64-4.87"/><g class="cls-3"><path class="cls-4" d="M34.22,5.56l-23,16.85a3.55,3.55,0,0,0-.79,4.93L31.19,55.58a3.53,3.53,0,0,0,4.93.72h0L62,37.35,39.15,6.28A3.53,3.53,0,0,0,34.22,5.56Z"/><polygon class="cls-5" points="24.39 18.13 25.59 19.75 37.07 11.33 35.88 9.7 24.39 18.13"/><polygon class="cls-5" points="27.77 22.73 28.92 24.29 40.4 15.87 39.26 14.3 27.77 22.73"/><polygon class="cls-5" points="31.1 27.27 32.3 28.9 43.78 20.47 42.59 18.84 31.1 27.27"/><polygon class="cls-5" points="47.11 25.01 45.92 23.38 24.94 38.78 26.13 40.41 47.11 25.01"/><polygon class="cls-5" points="50.44 29.55 49.25 27.91 28.27 43.31 29.46 44.94 50.44 29.55"/><polygon class="cls-5" points="53.77 34.08 52.58 32.45 31.59 47.85 32.79 49.48 53.77 34.08"/><path class="cls-6" d="M25.85,33.63l-.68-.92a6.7,6.7,0,0,1-4.14.75l.14-2.5a6.72,6.72,0,0,0,2.67-.21l-1.4-1.92a5.82,5.82,0,0,1-2.66.54,2.88,2.88,0,0,1-1.89-1.24,3.06,3.06,0,0,1-.64-2.36,3.78,3.78,0,0,1,1.16-2.27l-.47-.64,1.35-1,.47.64a9.08,9.08,0,0,1,3.4-.86L23.24,24a5.7,5.7,0,0,0-2.13.36l1.35,1.84a5.29,5.29,0,0,1,2.79-.51,2.84,2.84,0,0,1,1.88,1.23,3,3,0,0,1,.58,2.42,3.8,3.8,0,0,1-1.36,2.3l.67.92-1.27.94Zm-6.09-8.29a.84.84,0,0,0,0,1.07,1,1,0,0,0,1.14.37l-1.09-1.49Zm5.55,3.24a.78.78,0,0,0-.46-.32c-.17-.09-.44,0-.75,0l1.19,1.63A1.19,1.19,0,0,0,25.31,28.58Z"/></g></g></g></svg>