<?xml version="1.0" encoding="utf-8"?>
<!-- Generator: Adobe Illustrator 21.1.0, SVG Export Plug-In . SVG Version: 6.00 Build 0)  -->
<svg version="1.1" id="Layer_1" xmlns="http://www.w3.org/2000/svg" xmlns:xlink="http://www.w3.org/1999/xlink" x="0px" y="0px"
	 viewBox="0 0 40.9 13" style="enable-background:new 0 0 40.9 13;" xml:space="preserve">
<style type="text/css">
	.st0{fill:#006DA9;}
</style>
<title>link</title>
<g id="Layer_2">
	<g id="global_nav">
		<g id="Layer_2-2">
			<g id="Master_Objects">
				<path class="st0" d="M40.9,6.5C40.9,2.9,38,0,34.4,0h-6.2c-3,0-5.5,2.1-6.1,5H19c-0.6-2.9-3.2-5-6.2-5h-6C3.2-0.1,0.2,2.7,0,6.3
					c-0.1,3.6,2.7,6.6,6.3,6.7c0.1,0,0.1,0,0.2,0h6.2c3,0,5.5-2.1,6.2-5H22c0.6,2.9,3.2,5,6.1,5h6.2C37.9,13,40.9,10.1,40.9,6.5
					L40.9,6.5L40.9,6.5z M12.3,11H6.7c-2.2,0-4-1.7-4-4c0-2.2,1.7-4,3.9-4h5.6l3.7,2H9.8C9,5,8.3,5.7,8.3,6.5S9,8,9.8,8H16L12.3,11z
					 M34.2,11h-5.6l-3.7-3H31c0.8,0,1.5-0.7,1.5-1.5S31.9,5,31,5h-6.1l3.7-2h5.6c2.2,0,4,1.7,4,4S36.5,11,34.2,11
					C34.3,11,34.2,11,34.2,11z"/>
			</g>
		</g>
	</g>
</g>
</svg>
