<svg xmlns="http://www.w3.org/2000/svg" viewBox="0 0 40.88 13"><defs><style>.cls-1{fill:#049fda;}</style></defs><title>link</title><g id="Layer_2" data-name="Layer 2"><g id="global_nav" data-name="global nav"><g id="Layer_2-2" data-name="Layer 2"><g id="Master_Objects" data-name="Master Objects"><path class="cls-1" d="M40.88,6.5A6.51,6.51,0,0,0,34.38,0H28.14A6.32,6.32,0,0,0,22,5H18.9a6.31,6.31,0,0,0-6.19-5H6.8A6.7,6.7,0,0,0,0,6.33,6.5,6.5,0,0,0,6.5,13h6.21a6.32,6.32,0,0,0,6.15-5h3.08a6.31,6.31,0,0,0,6.15,5h6.25a6.51,6.51,0,0,0,6.53-6.5ZM12.26,11H6.72a4,4,0,1,1-.1-8h5.64l3.66,2H9.84a1.5,1.5,0,1,0,0,3H16Zm21.9,0H28.59L24.93,8h6.12a1.5,1.5,0,0,0,0-3H24.93l3.66-2h5.58a4,4,0,1,1,.1,8h-.11Z"/></g></g></g></g></svg>