<svg xmlns="http://www.w3.org/2000/svg" viewBox="0 0 56 61"><defs><style>.cls-1{fill:#00bbeb;}</style></defs><title>Next-bill-on</title><g id="Layer_2" data-name="Layer 2"><g id="Layer_1-2" data-name="Layer 1"><rect class="cls-1" x="29" y="23" width="8" height="8"/><rect class="cls-1" x="29" y="34" width="8" height="8"/><rect class="cls-1" x="41" y="23" width="8" height="8"/><rect class="cls-1" x="41" y="34" width="8" height="8"/><rect class="cls-1" x="29" y="45" width="8" height="8"/><rect class="cls-1" x="18" y="23" width="8" height="8"/><rect class="cls-1" x="7" y="34" width="8" height="8"/><rect class="cls-1" x="7" y="45" width="8" height="8"/><path class="cls-1" d="M48,8V0H37V8H18V0H7V8H0V61H56V8ZM40,3h5v9H40ZM10,3h5v9H10ZM52,57H3V20H52Z"/><rect class="cls-1" x="18" y="34" width="8" height="8"/><rect class="cls-1" x="18" y="45" width="8" height="8"/></g></g></svg>