<svg xmlns="http://www.w3.org/2000/svg" xmlns:xlink="http://www.w3.org/1999/xlink" viewBox="0 0 82.36 75.76"><defs><style>.cls-1,.cls-6,.cls-7,.cls-8{fill:none;}.cls-2{fill:#f4f4f4;}.cls-3{clip-path:url(#clip-path);}.cls-4{fill:#e2e2e2;}.cls-5{fill:#dee2e2;}.cls-6,.cls-7{stroke:#cacccc;stroke-miterlimit:10;}.cls-6{stroke-width:1.47px;}.cls-7{stroke-dasharray:2.32 2.92;}.cls-8{stroke:#cbcbcb;stroke-linecap:round;stroke-linejoin:round;stroke-width:0.83px;}</style><clipPath id="clip-path" transform="translate(-1)"><path class="cls-1" d="M13.74,67.08a37.89,37.89,0,1,1,2.78,2.09"/></clipPath></defs><title>no-contacts-icon</title><g id="Layer_2" data-name="Layer 2"><g id="Layer_1-2" data-name="Layer 1"><path class="cls-2" d="M14.74,67.08a37.89,37.89,0,1,1,2.78,2.09" transform="translate(-1)"/><g class="cls-3"><polygon class="cls-4" points="81.13 60.2 71.61 68.27 56.96 52.88 62.09 47.75 81.13 60.2"/><path class="cls-4" d="M57.47,41.9l5.61,5.85L58,52.88,54.64,50.3A24.41,24.41,0,0,0,57,42.61C57.16,42.38,57.31,42.14,57.47,41.9Z" transform="translate(-1)"/><path class="cls-5" d="M57.59,29.43a19,19,0,0,1-.77,5.42c0-.16-.07-.32-.09-.47a24.58,24.58,0,0,0-33-17.92,19.42,19.42,0,0,1,33.86,13Z" transform="translate(-1)"/><circle class="cls-6" cx="37.18" cy="29.43" r="19.42"/><circle class="cls-6" cx="36.81" cy="29.8" r="23.08"/><polyline class="cls-6" points="50.84 48.12 56.96 52.88 62.09 47.75 56.47 41.9"/><polyline class="cls-6" points="56.96 52.88 71.61 68.26 81.14 60.2 62.09 47.75"/></g><path class="cls-7" d="M9.8,61.55c.28-5.89,5.74-10.41,11.48-9.11.27.06.54.14.81.22h0a10,10,0,0,0,12.8-7.5L37.64,32" transform="translate(-1)"/><line class="cls-8" x1="32.29" y1="25.25" x2="38.98" y2="29.74"/><line class="cls-8" x1="33.39" y1="30.84" x2="37.88" y2="24.14"/></g></g></svg>