<svg xmlns="http://www.w3.org/2000/svg" viewBox="0 0 149.07 108.84"><defs><style>.cls-1{opacity:0.2;}.cls-2{fill:none;stroke:#b2b2b2;stroke-miterlimit:10;stroke-width:3px;}.cls-3{fill:#58585b;}</style></defs><title>Cloud-2</title><g id="Layer_2" data-name="Layer 2"><g id="specctr"><g id="Text_Properties" data-name="Text Properties"><g class="cls-1"><path class="cls-2" d="M77,107.28c-14.16,0-28.33-.12-42.49.06-7.36.09-13.63-2.44-19.37-6.69C9,96.09,5.32,90,2.93,82.7-1.83,68.23,5.84,52.23,18.07,45.05a17.87,17.87,0,0,1,3.5-1.89c1.79-.57,1.7-2.19,1.43-3.56A26.93,26.93,0,0,1,23,31,33,33,0,0,1,35.47,8.82C43.94,1.91,53.82.13,64.09,2.48A31.71,31.71,0,0,1,86.15,20a17.79,17.79,0,0,1,1.95,4.57c.28,1.52,1.56,1.38,2.59,1.19A30.29,30.29,0,0,1,105,26.85c10.3,3.09,17.52,9.71,21.65,19.72a25,25,0,0,1,2,8.4,3.84,3.84,0,0,0,3,3.72C142.45,62,149.4,75.07,147.14,85.82c-2.31,11-8.86,17.81-19.73,20.68a26.44,26.44,0,0,1-6.88.79Z"/><path class="cls-3" d="M81.05,52.28a4.61,4.61,0,0,1-4.86,4.78C73.4,57,71.51,55,71.54,52a4.49,4.49,0,0,1,4.61-4.47A4.57,4.57,0,0,1,81.05,52.28Z"/><path class="cls-3" d="M61.05,52.11a4.63,4.63,0,0,1-4.7,5,4.85,4.85,0,0,1-4.8-4.66,4.7,4.7,0,0,1,4.83-4.86C59.37,47.56,61.06,49.22,61.05,52.11Z"/><path class="cls-3" d="M65.43,67.48C72.62,67.6,78,69.72,82,74.72a19.11,19.11,0,0,1,2.34,4.35,2.75,2.75,0,0,1-1.79,3.84,3.35,3.35,0,0,1-4.42-1.74C74,73.1,62.64,71.33,56.55,77.78a9.07,9.07,0,0,0-1.63,2.76c-.9,2.07-3,3.14-4.59,2.35-2-1-2.26-2.86-1.56-4.7a15.51,15.51,0,0,1,8-8.51C59.69,68.26,62.89,67.13,65.43,67.48Z"/></g></g></g></g></svg>