<svg xmlns="http://www.w3.org/2000/svg" xmlns:xlink="http://www.w3.org/1999/xlink" viewBox="0 0 183.5 187.12"><defs><style>.cls-1{fill:none;}.cls-2{fill:#eee;}.cls-3{clip-path:url(#clip-path);}.cls-4,.cls-5{fill:#fff;}.cls-4{stroke:#c9c9c8;stroke-miterlimit:10;stroke-width:2px;}</style><clipPath id="clip-path"><circle class="cls-1" cx="107" cy="85.73" r="77.5"/></clipPath></defs><title>Add Product</title><g id="Layer_2" data-name="Layer 2"><g id="Layer_1-2" data-name="Layer 1"><circle class="cls-2" cx="106" cy="85.73" r="77.5"/><g class="cls-3"><path class="cls-4" d="M72.6,101.57l54.47,28.17a.33.33,0,0,1,.17.31l-4.62,55a.31.31,0,0,1-.44.26L67.39,160.93a.32.32,0,0,1-.19-.32l4.94-58.79A.31.31,0,0,1,72.6,101.57Z"/><path class="cls-4" d="M122.58,185.45l45-21.94a.3.3,0,0,0,.18-.25l4.44-53a.32.32,0,0,0-.44-.32l-44.55,19.87Z"/><path class="cls-4" d="M113.1,83.84,121.88,49a2.52,2.52,0,0,1,3.42-1.72l53.25,21.94a2.52,2.52,0,0,1,1.52,2.85l-7.7,37.3a.32.32,0,0,1-.44.23L113.42,84.15a.36.36,0,0,0-.25,0l-41,17.2"/><line class="cls-4" x1="110.38" y1="121.11" x2="113.49" y2="84.05"/></g><g class="cls-3"><path class="cls-4" d="M72.6,101.57l54.47,28.17a.33.33,0,0,1,.17.31l-4.62,55a.31.31,0,0,1-.44.26L67.39,160.93a.32.32,0,0,1-.19-.32l4.94-58.79A.31.31,0,0,1,72.6,101.57Z"/><path class="cls-4" d="M122.58,185.45l45-21.94a.3.3,0,0,0,.18-.25l4.44-53a.32.32,0,0,0-.44-.32l-44.55,19.87Z"/><path class="cls-4" d="M113.1,83.84,121.88,49a2.52,2.52,0,0,1,3.42-1.72l53.25,21.94a2.52,2.52,0,0,1,1.52,2.85l-7.7,37.3a.32.32,0,0,1-.44.23L113.42,84.15a.36.36,0,0,0-.25,0l-41,17.2"/><line class="cls-4" x1="110.38" y1="121.11" x2="113.49" y2="84.05"/></g><path class="cls-5" d="M0,41.23s57,0,68,26l-9,6,32,10,6-31-8,2s-4-20-37-29"/><path class="cls-5" d="M145.26,0S113,16.3,114.17,34.17L121,35,105.72,49.81,93.45,34l5.11-1.15s-3.45-12.47,12.67-27"/></g></g></svg>