<svg xmlns="http://www.w3.org/2000/svg" xmlns:xlink="http://www.w3.org/1999/xlink" viewBox="0 0 30.96 32.22"><defs><style>.cls-1{fill:url(#linear-gradient);}</style><linearGradient id="linear-gradient" y1="16.11" x2="30.96" y2="16.11" gradientUnits="userSpaceOnUse"><stop offset="0" stop-color="#044925"/><stop offset="1" stop-color="#00d4c3"/></linearGradient></defs><title>Asset 362</title><g id="Layer_2" data-name="Layer 2"><g id="Layer_1-2" data-name="Layer 1"><path class="cls-1" d="M18.92,14.89H16.13a6.87,6.87,0,0,0-.68-1.51l1.85-1.86a1.11,1.11,0,0,0,0-1.57l-.79-.78a1.12,1.12,0,0,0-1.57,0L13.06,11a6.68,6.68,0,0,0-1.65-.67V7.93A1.11,1.11,0,0,0,10.3,6.82H9.18A1.12,1.12,0,0,0,8.07,7.93v2.45a6.53,6.53,0,0,0-1.79.75L4.71,9.55a1.12,1.12,0,0,0-1.58,0l-.79.79a1.12,1.12,0,0,0,0,1.58l1.6,1.6a6.64,6.64,0,0,0-.74,1.92H1.12A1.11,1.11,0,0,0,0,16.56v1.11a1.11,1.11,0,0,0,1.12,1.11H3.35a6.52,6.52,0,0,0,.9,1.85L2.74,22.15a1.12,1.12,0,0,0,0,1.58l.79.79a1.12,1.12,0,0,0,1.58,0l1.69-1.69a6.47,6.47,0,0,0,1.84.59v2.33a1.12,1.12,0,0,0,1.11,1.12h1.11A1.12,1.12,0,0,0,12,25.74V23.12a6.53,6.53,0,0,0,1.57-.8l1.79,1.79a1.12,1.12,0,0,0,1.58,0l.79-.79a1.11,1.11,0,0,0,0-1.58l-2-2a6.6,6.6,0,0,0,.54-1.56h2.65A1.11,1.11,0,0,0,20,17.11V16A1.12,1.12,0,0,0,18.92,14.89ZM9.74,19.62a2.78,2.78,0,1,1,2.78-2.78A2.78,2.78,0,0,1,9.74,19.62Zm20.45-14H28.26a4.74,4.74,0,0,0-.47-1l1.28-1.28a.77.77,0,0,0,0-1.09l-.54-.54a.77.77,0,0,0-1.09,0l-1.3,1.3A4.61,4.61,0,0,0,25,2.46V.77A.77.77,0,0,0,24.23,0h-.77a.77.77,0,0,0-.77.77V2.46A4.51,4.51,0,0,0,21.46,3L20.37,1.89a.77.77,0,0,0-1.09,0l-.55.54a.77.77,0,0,0,0,1.09l1.11,1.11A4.59,4.59,0,0,0,19.33,6H17.89a.77.77,0,0,0-.77.77V7.5a.77.77,0,0,0,.77.77h1.55a4.51,4.51,0,0,0,.62,1.28l-1,1a.77.77,0,0,0,0,1.09l.54.54a.77.77,0,0,0,1.09,0l1.17-1.17a4.47,4.47,0,0,0,1.27.41v1.61a.77.77,0,0,0,.77.77h.77a.77.77,0,0,0,.77-.77V11.26a4.51,4.51,0,0,0,1.09-.55l1.24,1.24a.77.77,0,0,0,1.09,0l.54-.54a.76.76,0,0,0,0-1.09L28,9a4.56,4.56,0,0,0,.38-1.08h1.83A.77.77,0,0,0,31,7.11V6.34A.77.77,0,0,0,30.19,5.57ZM23.85,8.84a1.92,1.92,0,1,1,1.92-1.92A1.92,1.92,0,0,1,23.85,8.84ZM30.19,24H28.26a4.74,4.74,0,0,0-.47-1l1.28-1.28a.77.77,0,0,0,0-1.09L28.52,20a.77.77,0,0,0-1.09,0l-1.3,1.3A4.61,4.61,0,0,0,25,20.84V19.15a.77.77,0,0,0-.77-.77h-.77a.77.77,0,0,0-.77.77v1.69a4.51,4.51,0,0,0-1.24.52l-1.09-1.09a.77.77,0,0,0-1.09,0l-.55.54a.77.77,0,0,0,0,1.09L19.84,23a4.59,4.59,0,0,0-.51,1.33H17.89a.77.77,0,0,0-.77.77v.77a.77.77,0,0,0,.77.77h1.55a4.51,4.51,0,0,0,.62,1.28l-1,1a.77.77,0,0,0,0,1.09l.54.54a.77.77,0,0,0,1.09,0l1.17-1.17a4.47,4.47,0,0,0,1.27.41v1.61a.77.77,0,0,0,.77.77h.77a.77.77,0,0,0,.77-.77V29.65a4.51,4.51,0,0,0,1.09-.55l1.24,1.24a.77.77,0,0,0,1.09,0l.54-.54a.76.76,0,0,0,0-1.09L28,27.34a4.56,4.56,0,0,0,.38-1.08h1.83a.77.77,0,0,0,.77-.77v-.77A.77.77,0,0,0,30.19,24Zm-6.34,3.27a1.92,1.92,0,1,1,1.92-1.92A1.92,1.92,0,0,1,23.85,27.22Z"/></g></g></svg>