<?xml version="1.0" encoding="utf-8"?>
<!-- Generator: Adobe Illustrator 22.0.1, SVG Export Plug-In . SVG Version: 6.00 Build 0)  -->
<svg version="1.1" id="Layer_1" xmlns="http://www.w3.org/2000/svg" xmlns:xlink="http://www.w3.org/1999/xlink" x="0px" y="0px"
	 viewBox="0 0 56 56" style="enable-background:new 0 0 56 56;" xml:space="preserve">
<style type="text/css">
	.st0{fill:#B7ECF9;}
	.st1{fill:#67DEF9;stroke:#0DBAEC;stroke-width:1.1068;stroke-miterlimit:10;}
</style>
<circle class="st0" cx="28" cy="28" r="28"/>
<g>
	<path class="st1" d="M37.6,38.7H17.3c-3.8,0-6.8-3.1-6.8-6.8c0-3.7,3-6.8,6.7-6.8c1.3-4.6,5.5-7.7,10.3-7.7c4,0,7.5,2.1,9.4,5.6
		c0.3,0,0.6,0,0.8,0c4.4,0,7.9,3.5,7.9,7.9S42,38.7,37.6,38.7L37.6,38.7z M17.4,26.1c-3.3,0-5.9,2.6-5.9,5.8c0,3.2,2.6,5.8,5.8,5.8
		h20.4c3.8,0,6.8-3.1,6.8-6.8c0-3.8-3.1-6.8-6.8-6.8c-0.3,0-0.7,0-1,0.1c-0.2,0.1-0.5-0.1-0.6-0.3c-1.6-3.3-5-5.4-8.6-5.4
		c-4.4,0-8.3,3-9.3,7.3c-0.1,0.2-0.3,0.4-0.5,0.4L17.4,26.1L17.4,26.1L17.4,26.1z M17.4,26.1"/>
</g>
</svg>
