<svg xmlns="http://www.w3.org/2000/svg" viewBox="0 0 70 70"><defs><style>.cls-1{fill:#00bbeb;}</style></defs><title>Payment-Information</title><g id="Layer_2" data-name="Layer 2"><g id="Layer_1-2" data-name="Layer 1"><path class="cls-1" d="M34.94,0A35,35,0,1,0,70,34.94,34.89,34.89,0,0,0,34.94,0ZM48,43.81c-.66,3.72-3,6-6.43,7.38-1.15.46-3.11,1.2-3.11,1.2v5.28h-6v-5.6c-5.74-1.5-10.86-3.33-11.29-9.84,3.34-.09,6.3-1.07,8.66,2.27,1.78,2.51,7.94,2.46,10.63.6s2.35-4.85-.66-6a65.42,65.42,0,0,0-8.2-2c-6.55-1.47-9.48-4.08-9.72-8.69-.26-5.24,2.29-8.28,8.66-10.33.46-.15.9-.35,1.55-.59.1-1.84.2-3.71.32-5.85h5v5.92c5.2,1.59,9.48,3.58,10,9.66-2.91.25-5.57,1.38-7.67-2.07-1.46-2.4-6.54-2.64-8.75-.76-.83.71-1.72,2.27-1.48,3.12a5.11,5.11,0,0,0,2.68,3.05c3,1.07,6.21,1.48,9.24,2.44C46.91,34.73,49,38.32,48,43.81Z"/></g></g></svg>