<?xml version="1.0" encoding="utf-8"?>
<!-- Generator: Adobe Illustrator 21.1.0, SVG Export Plug-In . SVG Version: 6.00 Build 0)  -->
<svg version="1.1" id="Layer_1" xmlns="http://www.w3.org/2000/svg" xmlns:xlink="http://www.w3.org/1999/xlink" x="0px" y="0px"
	 viewBox="0 0 19.5 20" style="enable-background:new 0 0 19.5 20;" xml:space="preserve">
<style type="text/css">
	.st0{fill-rule:evenodd;clip-rule:evenodd;fill:#CCCCCC;}
</style>
<path class="st0" d="M17.7,3.2l-1.5-1.5L18,0c0,0,1.5,0,1.5,1.5L17.7,3.2z M2,4v14h14V8.5l2-2V18c0,1.1-0.9,2-2,2H2
	c-1.1,0-2-0.9-2-2V4c0-1.1,0.9-2,2-2h11.5l-2,2H2z M7,13v-1.5l0.8-0.8l1.5,1.5L8.5,13H7z M16.7,4.2l-7.5,7.5l-1.5-1.5l7.5-7.5
	L16.7,4.2z"/>
</svg>
