<svg xmlns="http://www.w3.org/2000/svg" viewBox="0 0 32.68 27.9"><defs><style>.cls-1{fill:#ededed;}.cls-2{fill:#e3a116;}.cls-3{fill:#78bf1f;}.cls-4{fill:#fff;}.cls-5{fill:#95da40;}.cls-6{fill:#f9b526;}.cls-7{fill:#caff8a;}.cls-8{fill:#ffcf69;}.cls-9{fill:#3bbcf9;}.cls-10{fill:#93dbfd;}.cls-11{fill:#14a6eb;}</style></defs><title>Asset 208</title><g id="Layer_2" data-name="Layer 2"><g id="Layer_1-2" data-name="Layer 1"><path class="cls-1" d="M16,9v.2Q16,9.12,16,9ZM12.33,5.41V5c0-1.14.93-1.59,2.07-1.59h4.12c1.14,0,2.07.45,2.07,1.59v.37h1.93l.2-.32V3.87a3,3,0,0,0-3-3H13a3,3,0,0,0-3,3V5.09l.2.32Zm20.31,17.9,0-13.57a3.56,3.56,0,0,0-3.54-3.56H18V9c0,1-.47,1.77-2,2l-.42.08A1.92,1.92,0,0,0,16,9.81V9.22a2.86,2.86,0,0,1,0,.33A4.34,4.34,0,0,0,16,9V6.18H3.6A3.56,3.56,0,0,0,0,9.74L0,23.31s0,.09,0,.13v.9A3.56,3.56,0,0,0,3.56,27.9H14.17V26.6c0-1.5.69-2.15,2.18-2.22a2.56,2.56,0,0,0-.23,1.18V27.9h13a3.56,3.56,0,0,0,3.5-3.56v-.92h0S32.64,23.35,32.64,23.31Zm-21.57-9h0v-.08c0-.05,0-.11,0-.17s0,.14,0,.21v0Zm7.76,9.13a3,3,0,0,0,.88-2.13c0-.16,0-.71,0-1h0a3.08,3.08,0,0,0-3.07-3.06s-1.35,0-2.84-.06h-.72a3,3,0,0,1-2-2.52c0-2,1.46-2.65,3-2.76a2.35,2.35,0,0,0-1,1.76c0,.1,0,.11,0,.13A1.49,1.49,0,0,0,13,14C13,16,14,17,16.08,17h2.38a3.25,3.25,0,0,1,3.21,3.2h0v0A3.26,3.26,0,0,1,18.82,23.44Z"/><path class="cls-2" d="M14.1,10.88A1.74,1.74,0,0,0,16,9V8.2c0,1-.22,1.67-1.71,1.75A3.28,3.28,0,0,0,11,13.16a3.22,3.22,0,0,0,0,.52C11.1,11.68,12.58,11,14.1,10.88Zm5.59,8.44a3,3,0,0,1-3.06,3.17c-1.68,0-2.47.63-2.47,2.23v1.06c0-1.59.78-2.23,2.47-2.23a3.08,3.08,0,0,0,3.06-3.06A8,8,0,0,0,19.7,19.32Z"/><path class="cls-3" d="M21.67,19.42a7.94,7.94,0,0,0,0-.85,3.33,3.33,0,0,0-3.23-3.33H16.08c-1.82,0-3-.94-3-2.45a1.49,1.49,0,0,0,0,.38c0,2,1,3.06,3.06,3.06h2.38A3.25,3.25,0,0,1,21.67,19.42Z"/><path class="cls-4" d="M16.64,16.37s-1.35,0-2.84-.06a3,3,0,0,1-2.74-3s0,.1,0,.15a3,3,0,0,0,2.75,3.15c1.49.1,2.84.06,2.84.06a3.06,3.06,0,0,1,3.06,2.9q0-.08,0-.16A3.06,3.06,0,0,0,16.64,16.37Z"/><path class="cls-5" d="M29.14,5.36H18V8.2c0,1.15-.48,1.79-2,2-1.87.3-2.7,1.07-2.86,2.44,0,.1,0,.09,0,.1,0,1.52,1.21,2.45,3,2.45h2.38a3.33,3.33,0,0,1,3.23,3.33,8.08,8.08,0,0,1,0,.85v0a3.25,3.25,0,0,1-3.21,3.21c-2.06,0-2.34,1.06-2.34,2.1v1.31h13a3.56,3.56,0,0,0,3.5-3.56l0-13.57A3.56,3.56,0,0,0,29.14,5.36Z"/><path class="cls-6" d="M16.64,16.37s-1.35,0-2.84-.06A3,3,0,0,1,11,13.16,3.29,3.29,0,0,1,14.29,10C15.88,9.83,16,9.14,16,8.2V5.36H3.6A3.56,3.56,0,0,0,0,8.92L0,22.49a3.56,3.56,0,0,0,3.56,3.56H14.17V24.72c0-1.59.83-2.12,2.52-2.18a3,3,0,0,0,3-3.1A3.06,3.06,0,0,0,16.64,16.37Z"/><path class="cls-7" d="M29.14,5.68A3.56,3.56,0,0,1,32.68,9.2V8.92a3.56,3.56,0,0,0-3.54-3.56H18v.32H29.14Z"/><path class="cls-8" d="M3.86,5.36H3.6A3.56,3.56,0,0,0,0,8.92v.27H0A3.56,3.56,0,0,1,3.6,5.68H16V5.36Z"/><path class="cls-9" d="M19.67,0H13a3,3,0,0,0-3,3V4.27h1.8V3.85C11.78,2.58,12.79,2,14,2h4.86c1.24,0,2.25.55,2.25,1.82v.41h1.58V3A3,3,0,0,0,19.67,0Z"/><path class="cls-10" d="M19.67,0H13a3,3,0,0,0-3,3v.42a3,3,0,0,1,3-3h6.63a3,3,0,0,1,3,2.93V3A3,3,0,0,0,19.67,0Z"/><path class="cls-7" d="M18,8.51V8.2c0,1-.46,1.76-2,2-2,.32-2.87,1.22-2.92,2.62,0,0,0,.05,0,.07.18-1.33,1.06-2.09,2.91-2.38C17.51,10.27,18,9.52,18,8.51ZM21.7,19a2.78,2.78,0,0,1,0,.35v0a3.25,3.25,0,0,1-3.21,3.21c-2.06,0-2.34,1.06-2.34,2.1V25c0-1,.28-2.1,2.34-2.1a3.25,3.25,0,0,0,3.21-3.21v0A5.52,5.52,0,0,0,21.7,19Z"/><path class="cls-8" d="M16.65,16.38s-1.35,0-2.84-.06a3,3,0,0,1-2.74-3c0,.05,0,.1,0,.15a3,3,0,0,0,2.75,3.15c1.49.1,2.84.06,2.84.06a3.06,3.06,0,0,1,3.06,2.9q0-.08,0-.16A3.06,3.06,0,0,0,16.65,16.38Z"/><path class="cls-11" d="M21.14,4.27V3.85c0-1.27-1-1.82-2.25-1.82H14c-1.24,0-2.25.55-2.25,1.82v.41H10l.2.32h2.13V4.22c0-1.14.93-1.59,2.07-1.59h4.12c1.14,0,2.07.45,2.07,1.59v.37h1.93l.2-.32Z"/></g></g></svg>