<?xml version="1.0" encoding="utf-8"?>
<!-- Generator: Adobe Illustrator 21.1.0, SVG Export Plug-In . SVG Version: 6.00 Build 0)  -->
<svg version="1.1" id="Layer_1" xmlns="http://www.w3.org/2000/svg" xmlns:xlink="http://www.w3.org/1999/xlink" x="0px" y="0px"
	 viewBox="0 0 16.6 16.6" style="enable-background:new 0 0 16.6 16.6;" xml:space="preserve">
<style type="text/css">
	.st0{fill:#006699;}
</style>
<title>search</title>
<g id="Layer_2">
	<g id="content">
		<path class="st0" d="M15.3,16.6c-0.3,0-0.7-0.1-0.9-0.4L11,12.8C7.8,15,3.5,14.2,1.3,11s-1.4-7.5,1.8-9.7s7.5-1.4,9.7,1.8
			c1.6,2.4,1.6,5.5,0,7.9l3.4,3.4c0.5,0.5,0.5,1.3,0,1.8C16,16.5,15.6,16.6,15.3,16.6z M7,2.5c-2.5,0-4.5,2-4.5,4.5
			c0,2.5,2,4.5,4.5,4.5s4.5-2,4.5-4.5c0,0,0,0,0,0C11.5,4.5,9.5,2.5,7,2.5z"/>
	</g>
</g>
</svg>
