<svg xmlns="http://www.w3.org/2000/svg" viewBox="0 0 43.71 45.99"><defs><style>.cls-1{fill:#babac0;}</style></defs><title>Asset 268</title><g id="Layer_2" data-name="Layer 2"><g id="Layer_1-2" data-name="Layer 1"><rect class="cls-1" x="5.02" y="13.68" width="25.4" height="1.87"/><rect class="cls-1" x="5.02" y="18.65" width="25.4" height="1.87"/><rect class="cls-1" x="5.02" y="23.63" width="25.4" height="1.87"/><rect class="cls-1" x="5.02" y="28.6" width="12.45" height="1.87"/><path class="cls-1" d="M3.27,37.62a1.87,1.87,0,0,1-1.87-1.87V3.42A1.87,1.87,0,0,1,3.27,1.55H25v9h9v16h.16a10.64,10.64,0,0,1,1.25.08V9.79L25.65,0H3.11A3.11,3.11,0,0,0,0,3.11v33a3.11,3.11,0,0,0,3.11,3.11H23.83a10.62,10.62,0,0,1-.18-1.55Z"/><path class="cls-1" d="M43.38,43.95,39.71,40a7.93,7.93,0,0,0,1.42-4.25,8.14,8.14,0,1,0-3.08,6l3.56,3.82a1.21,1.21,0,0,0,1.71.06h0A1.21,1.21,0,0,0,43.38,43.95ZM32.77,41.42A5.94,5.94,0,1,1,39,35.69,6,6,0,0,1,32.77,41.42Z"/></g></g></svg>