<svg xmlns="http://www.w3.org/2000/svg" viewBox="0 0 62 62"><defs><style>.cls-1{fill:#b7ecf9;}.cls-2{fill:#67def9;}.cls-2,.cls-3{stroke:#0dbaec;stroke-miterlimit:10;stroke-width:0.89px;}.cls-3{fill:#fff;}</style></defs><title>Asset 27</title><g id="Layer_2" data-name="Layer 2"><g id="Layer_1-2" data-name="Layer 1"><path class="cls-1" d="M11.24,54.89a30.92,30.92,0,1,1,2.28,1.72"/><path class="cls-2" d="M18.1,29.6,24.92,31,47.06,16.28,27.86,31.87l-2.8,8.36L28.76,33l8.14,3.57A1.27,1.27,0,0,0,38.56,36l10-20.81a.27.27,0,0,0-.36-.36L18,28.91A.37.37,0,0,0,18.1,29.6Z"/><line class="cls-3" x1="25.06" y1="40.23" x2="31.71" y2="34.42"/><line class="cls-3" x1="19.24" y1="33.58" x2="13.42" y2="39.4"/><line class="cls-3" x1="19.24" y1="41.89" x2="13.42" y2="47.71"/><line class="cls-3" x1="36.28" y1="36.49" x2="30.46" y2="42.31"/><line class="cls-3" x1="28.8" y1="48.13" x2="22.98" y2="53.94"/></g></g></svg>