<svg xmlns="http://www.w3.org/2000/svg" xmlns:xlink="http://www.w3.org/1999/xlink" viewBox="0 0 55.17 55.17"><defs><style>.cls-1{fill:none;}.cls-2{fill:#bbe5f3;}.cls-3{clip-path:url(#clip-path);}.cls-4,.cls-5{fill:#fff;}.cls-5{stroke:#11baee;stroke-miterlimit:10;stroke-width:2px;}</style><clipPath id="clip-path" transform="translate(0 -5.7)"><polygon class="cls-1" points="28.12 18.48 40.39 11.91 35.64 11.91 35.64 0 27.67 0 27.31 0 19.34 0 19.34 11.91 15.06 11.91 27.49 18.48 27.49 18.68 27.73 18.58 28.12 18.68 28.12 18.48"/></clipPath></defs><title>location</title><g id="Layer_2" data-name="Layer 2"><g id="Layer_1-2" data-name="Layer 1"><path class="cls-2" d="M10,54.54a27.51,27.51,0,1,1,2,1.53" transform="translate(0 -5.7)"/><g class="cls-3"><path class="cls-4" d="M10,54.54a27.51,27.51,0,1,1,2,1.53" transform="translate(0 -5.7)"/></g><path class="cls-5" d="M28.21,23.14c-4.68,0-11.69,2.13-11.69,10.63,0,4.25,9.35,19.13,11.69,23.38C30.55,52.9,39.9,38,39.9,33.77,39.9,25.27,32.89,23.14,28.21,23.14Zm0,14.35a3.72,3.72,0,1,1,3.72-3.72A3.72,3.72,0,0,1,28.21,37.49Z" transform="translate(0 -5.7)"/></g></g></svg>