<?xml version="1.0" encoding="utf-8"?>
<!-- Generator: Adobe Illustrator 22.0.1, SVG Export Plug-In . SVG Version: 6.00 Build 0)  -->
<svg version="1.1" id="Layer_1" xmlns="http://www.w3.org/2000/svg" xmlns:xlink="http://www.w3.org/1999/xlink" x="0px" y="0px"
	 viewBox="0 0 94.1 97.1" style="enable-background:new 0 0 94.1 97.1;" xml:space="preserve">
<style type="text/css">
	.st0{fill:none;}
	.st1{fill:#FFFFFF;}
	.st2{fill:#F4F4F4;}
	.st3{fill:#FFFFFF;stroke:#CACCCC;stroke-width:1.86;stroke-miterlimit:10;}
	.st4{clip-path:url(#SVGID_2_);}
	.st5{fill:#E2E2E2;}
	.st6{fill:none;stroke:#CACCCC;stroke-width:1.86;stroke-miterlimit:10;}
</style>
<title>LocationIcon</title>
<path class="st0" d="M25.1,89.3c-20-13.8-25-41.2-11.2-61.2c13.8-20,41.2-25,61.2-11.2c20,13.8,25,41.2,11.2,61.2
	c-8.2,11.9-21.8,19-36.3,19C41.1,97.1,32.4,94.4,25.1,89.3"/>
<polygon class="st1" points="51.9,31.2 71.9,21 64.9,21 64.9,2 52.2,2 51.6,2 38.9,2 38.9,21 31.5,21 50.9,31.2 50.9,31.6 
	51.7,31.4 51.9,31.6 "/>
<path class="st2" d="M15.9,87c-18.7-15.4-21.4-43.1-6-61.8s43.1-21.4,61.8-6s21.4,43.1,6,61.8c-14.4,17.5-39.8,21.1-58.6,8.4"/>
<polygon class="st1" points="44.9,29.5 64.5,19 56.9,19 56.9,0 44.2,0 43.6,0 30.9,0 30.9,19 24,19 43.9,29.5 43.9,29.8 44.2,29.6 
	44.9,29.8 "/>
<path class="st3" d="M45,36.9c-7.5,0-18.7,3.4-18.7,17c0,6.8,14.9,30.5,18.7,37.3c3.7-6.8,18.7-30.5,18.7-37.3
	C63.6,40.3,52.5,36.9,45,36.9z M45,59.8c-3.3,0-5.9-2.6-5.9-5.9c0-3.3,2.6-5.9,5.9-5.9c3.3,0,5.9,2.6,5.9,5.9l0,0
	C50.9,57.2,48.3,59.8,45,59.8z"/>
<g id="Layer_2_1_">
	<g id="Layer_1-2">
		<path class="st0" d="M212.8,96.6C187.4,79,181,44.2,198.5,18.8S250.9-13,276.3,4.5s31.8,52.3,14.3,77.7
			c-10.5,15.2-27.7,24.2-46.2,24.2C233.1,106.4,222.1,103,212.8,96.6"/>
		<polygon class="st1" points="246.6,22.8 271.9,9 263,9 263,-14.8 246.6,-14.8 245.9,-14.8 229.5,-14.8 229.5,9 220.6,9 
			245.9,22.8 245.9,23.2 246.3,23 246.6,23.2 		"/>
		<path class="st2" d="M201.2,93.6c-23.7-19.6-27-54.8-7.4-78.5s54.8-27,78.5-7.4s27,54.8,7.4,78.5c-18.4,22.2-50.6,26.7-74.4,10.5"
			/>
		<g>
			<defs>
				<path id="SVGID_1_" d="M201.2,93.6c-23.7-19.6-27-54.8-7.4-78.5s54.8-27,78.5-7.4s27,54.8,7.4,78.5
					c-18.4,22.2-50.6,26.7-74.4,10.5"/>
			</defs>
			<clipPath id="SVGID_2_">
				<use xlink:href="#SVGID_1_"  style="overflow:visible;"/>
			</clipPath>
			<g class="st4">
				<path class="st1" d="M271.1,95.6c0,18.8-15.2,34-34,34s-34-15.2-34-34s15.2-34,34-34l0,0C255.8,61.6,271.1,76.8,271.1,95.6z"/>
				<path class="st5" d="M219.7,66.6c0,0,19.5,16.6,34,0c0,0.7,0.7-2.9,10.1,7.2c-0.7-0.7-25.3,24.6-52.1-1.4L219.7,66.6z"/>
				<path class="st6" d="M271.1,95.6c0,18.8-15.2,34-34,34s-34-15.2-34-34s15.2-34,34-34l0,0C255.8,61.6,271.1,76.8,271.1,95.6z"/>
				<circle class="st3" cx="237.1" cy="50.7" r="23.2"/>
				<path class="st3" d="M213.9,57.6c0,0,10.6-6.9,8.4-17.3c0.7-1.5,8.2,7.4,29-0.7c0.7,0-1.7,13.2,8.4,15.5"/>
			</g>
		</g>
		<polygon class="st1" points="237.2,20.5 262.5,6.8 253.5,6.8 253.5,-17 237.2,-17 236.4,-17 220.1,-17 220.1,6.8 211.1,6.8 
			236.4,20.5 236.4,21 236.8,20.7 237.2,21 		"/>
	</g>
</g>
</svg>
