<svg xmlns="http://www.w3.org/2000/svg" viewBox="0 0 51.74 51.69"><defs><style>.cls-1{fill:#a9e1f5;}.cls-2{fill:#009bd5;}.cls-3{fill:#d0d2d1;}.cls-4{fill:#7abd43;}.cls-5{fill:#9dd381;}.cls-6{fill:#bfdda0;}.cls-7{fill:#a8cf78;}.cls-8{fill:#5bb8e1;}.cls-9{fill:#caebf7;}.cls-10{fill:#a6d78f;}.cls-11{fill:#72bde2;}.cls-12{fill:#b4d78c;}.cls-13{fill:#a2d385;}.cls-14{fill:#6ebce3;}.cls-15{fill:#98cde8;}.cls-16{fill:#72c8e8;}.cls-17{fill:#a7def0;}.cls-18{fill:#73bee3;}.cls-19{fill:#a9d893;}.cls-20{fill:#90cce9;}.cls-21{fill:#7dd1ea;}.cls-22{fill:#c7eaf8;}.cls-23{fill:#8ab8c6;}.cls-24{fill:#0089c8;}.cls-25{fill:#649d42;}.cls-26{fill:#1a7239;}.cls-27{fill:#6aabc0;}.cls-28{fill:#42883f;}.cls-29{fill:#0071a8;}.cls-30{fill:#13512b;}.cls-31{fill:#176436;}.cls-32{fill:#165a2e;}</style></defs><title>spark-room</title><g id="Layer_2" data-name="Layer 2"><g id="Layer_1-2" data-name="Layer 1"><g id="_Group_" data-name="&lt;Group&gt;"><path class="cls-1" d="M11.16,4.35,12.7,6c.31.35.62.7.94,1s.77.88,1.15,1.32l.79.86c.45.52.92,1,1.37,1.53a7.57,7.57,0,0,0,.88.91A.36.36,0,0,1,18,12a4,4,0,0,1,0,1,3.29,3.29,0,0,0,0,.63c0,2-.09,3.94-.08,5.91,0,.44-.07.5-.5.51-1.59,0-3.19-.12-4.78-.06-.5,0-1,0-1.48,0-1.18.05-2.36,0-3.53-.06a4.25,4.25,0,0,0-.8,0c-.12,0-.25,0-.34-.08a.47.47,0,0,1,.39-.13h3c.22,0,.43.08.66.06s.22,0,.31-.11l-1-1.16L7.2,15.71c-.76-.84-1.55-1.67-2.3-2.52-.58-.67-1.22-1.28-1.76-2a4.71,4.71,0,0,1-.66-1.28,6,6,0,0,1-.32-2,4.84,4.84,0,0,1,.61-2.23.94.94,0,0,0,.06-.15A2.39,2.39,0,0,0,3,5.28a.59.59,0,0,1,0-.22c.43-.94.86-1.89,1.28-2.84A9.77,9.77,0,0,1,4.88,1,2.12,2.12,0,0,1,6.1,0,1.55,1.55,0,0,1,7.19.21,4.16,4.16,0,0,1,8.46,1.3C9,1.93,9.6,2.56,10.17,3.2l.39.49.07.06h0l.07.07h0C10.82,4,11,4.16,11.16,4.35Z"/><path class="cls-2" d="M50.9,25.09,50,27.16c-.24.58-.49,1.15-.74,1.73-.06.1-.06.23-.14.32a5.93,5.93,0,0,1-1,1.2,6,6,0,0,1-.82.61c-.06.05-.14.07-.21.12a5,5,0,0,1-1.46.52,3.23,3.23,0,0,1-.69.07l-3.09-.1-.86,0c-1.12,0-2.23-.13-3.35-.13h-.53c-.08-.05-.18,0-.26-.05-.49,0-1,0-1.46,0a.4.4,0,0,1-.24-.16c-.78-.94-1.64-1.8-2.43-2.73-.63-.73-1.28-1.43-1.93-2.14-.11-.13-.21-.26-.33-.38a.36.36,0,0,1,0-.51,11.73,11.73,0,0,1,1.18-1.26c1.27-1.27,2.51-2.58,3.79-3.84a.2.2,0,0,1,.08,0,.16.16,0,0,1,.1,0c.22,0,.44,0,.66,0,1.15,0,2.29,0,3.43.07,1.44.07,2.89,0,4.33.11.44,0,.88,0,1.33,0,1.38,0,2.77.05,4.16.08a2.47,2.47,0,0,1,1.55.51,1.86,1.86,0,0,1,.57,2,10.42,10.42,0,0,1-.63,1.6C51,24.9,51,25,50.9,25.09Z"/><path class="cls-3" d="M28.69,39.54c-.15,0-.12.16-.12.27,0,.47,0,.93,0,1.4v4.6a1,1,0,0,1-.09.55s0,.08,0,.13a3.72,3.72,0,0,1-1.07,2.25,4,4,0,0,1-1.29,1,9.63,9.63,0,0,1-1.18.4l-.94.28c-.58.18-1.17.32-1.74.51s-1.25.35-1.86.55a2.69,2.69,0,0,1-.84.18,2.38,2.38,0,0,1-1.46-.56,2.06,2.06,0,0,1-.56-1,3.83,3.83,0,0,1-.12-1.3c0-.86,0-1.72,0-2.57a.6.6,0,0,1,.09-.41c.07-.09,0-.2,0-.3,0-2.13,0-4.26,0-6.39,0-.11.07-.26-.11-.31a.05.05,0,0,1,0-.07c.06-.09.14-.15.2-.24,1-1,2-2,3-3,.67-.68,1.31-1.4,2-2.06a.85.85,0,0,1,.32-.24c.19,0,.3.08.42.21,1.25,1.36,2.47,2.75,3.72,4.11.54.59,1.06,1.19,1.61,1.77C28.69,39.39,28.73,39.45,28.69,39.54Z"/><path class="cls-4" d="M17.57,38.63a.23.23,0,0,1-.2.2c-.49.55-1.06,1-1.54,1.59a7.29,7.29,0,0,1-.73.74,1.26,1.26,0,0,1-.2.2c-.33.33-.64.68-1,1a4.48,4.48,0,0,1-1.49.84,5.84,5.84,0,0,1-2.34.38,4.87,4.87,0,0,1-1.46-.3c-.38-.14-.77-.26-1.16-.38-.59-.18-1.17-.4-1.77-.57-.39-.11-.78-.25-1.17-.37A5.44,5.44,0,0,1,3,41.34a1.67,1.67,0,0,1-.44-.44,3.72,3.72,0,0,0-.19-.34h0a1.86,1.86,0,0,1,0-1.21,2.72,2.72,0,0,1,.57-.88c.56-.59,1.12-1.17,1.69-1.75.83-.85,1.65-1.73,2.48-2.59l1.2-1.24c.72-.74,1.43-1.49,2.14-2.23a.67.67,0,0,0,.07-.11.19.19,0,0,1,.21-.1,32.36,32.36,0,0,1,4.06.17,1.2,1.2,0,0,0,.46,0c.69,0,1.37.09,2.06.07a.32.32,0,0,1,.37.36c0,1.09.06,2.17,0,3.26,0,.31,0,.62,0,.93C17.6,36.4,17.61,37.51,17.57,38.63Z"/><path class="cls-3" d="M17.9,11.89l-.07-.19a.21.21,0,0,0,.07-.15v-.2c0-1.33.08-2.65.07-4a3.77,3.77,0,0,1,.37-1.5,6,6,0,0,1,1.15-1.76A4.22,4.22,0,0,1,21.09,3c.26-.1.49-.25.75-.34.62-.24,1.22-.54,1.83-.82l1.77-.8A11,11,0,0,1,26.72.55a1.77,1.77,0,0,1,2.12,1.21A5.06,5.06,0,0,1,29,2.85c0,.93,0,1.86,0,2.79-.06,1.44,0,2.88-.07,4.32,0,.4-.05.8-.05,1.2,0,.14.05.2.19.19,0,.24-.21.28-.29.44-1.45,1.48-2.86,3-4.32,4.47a14,14,0,0,1-1.21,1.23.32.32,0,0,1-.44-.11c-.9-1-1.84-2-2.74-3.07-.63-.72-1.29-1.41-1.92-2.13A1.87,1.87,0,0,1,17.9,11.89Z"/><path class="cls-1" d="M28.69,39.54l-.06-.18a.64.64,0,0,1-.11-.44c.1-2.42.06-4.85.07-7.27,0-.22,0-.44.28-.51.69-.06,1.37.1,2.06.06,1.39-.09,2.78.12,4.17.15a14.24,14.24,0,0,1,1.85.07c.08,0,.16,0,.22.06H35.63c-.07.11,0,.16,0,.21.67.72,1.32,1.46,2,2.19s1.22,1.29,1.75,2A4.1,4.1,0,0,1,40,37.13a4.75,4.75,0,0,1,.18,1.63,3.89,3.89,0,0,1-.58,1.94c-.49.79-1,1.59-1.45,2.38-.28.45-.55.91-.82,1.36a2.65,2.65,0,0,1-1.53,1.2,1.73,1.73,0,0,1-.93,0,2.41,2.41,0,0,1-1.23-.73c-.55-.61-1.11-1.2-1.66-1.81L30.09,41c-.37-.4-.74-.82-1.11-1.23A1.86,1.86,0,0,0,28.69,39.54Z"/><path class="cls-4" d="M28.69,11.75c0-.19.28-.21.33-.4l1.05-1.06,1.44-1.5,1.86-1.94A2.52,2.52,0,0,1,34,6.29,3.74,3.74,0,0,1,34.76,6a1.91,1.91,0,0,1,2.08.88,12.19,12.19,0,0,1,.7,1.4A7.45,7.45,0,0,1,38,9.35c.09.12.11.28.2.4.41.89.84,1.76,1.22,2.66A4.48,4.48,0,0,1,39.67,15a5,5,0,0,1-.62,1.68,4.19,4.19,0,0,1-.69.88c-.59.56-1.12,1.18-1.72,1.72-.15.16-.31.32-.47.47s-.41.36-.54.62h-.08a1.46,1.46,0,0,1-.72,0,1.23,1.23,0,0,0-.27,0c-1.74,0-3.48-.11-5.22-.07-.53,0-.61-.07-.62-.62,0-1.89,0-3.77,0-5.66,0-.59.07-1.17.06-1.76A1,1,0,0,0,28.69,11.75Z"/><path class="cls-2" d="M10.63,30.48l-.13.07a3,3,0,0,0-.79-.06c-.94,0-1.89-.06-2.83-.09-1.11,0-2.23-.07-3.35-.13-.52,0-1,0-1.56-.06A2.07,2.07,0,0,1,.39,29.5a1.62,1.62,0,0,1-.31-1.56A8,8,0,0,1,1,26.09c.12-.22.22-.45.33-.67h0c.06-.08.07-.19.13-.27h0a.1.1,0,0,0,.05-.06v0a.78.78,0,0,0,.05-.14l.1-.17h0a2.19,2.19,0,0,1,.13-.27l.8-1.59c.08-.08.06-.19.14-.27L3,22.09c.14-.15.24-.34.39-.48h0c.07-.06.12-.15.2-.21a3.2,3.2,0,0,1,.27-.25,5.61,5.61,0,0,1,2.54-1.27c.18.05.34-.05.52-.05.62,0,1.23,0,1.85,0s1.35,0,2,0h.26c1.1,1.24,2.23,2.45,3.32,3.7.37.42.79.81,1.14,1.25a.41.41,0,0,1,.07.46,7.29,7.29,0,0,1-1,1.13c-1.22,1.28-2.45,2.55-3.68,3.83A.48.48,0,0,1,10.63,30.48Z"/><path class="cls-5" d="M15.83,40.42a.25.25,0,0,1,.1-.2l1.36-1.35.08,0a.13.13,0,0,0,0,.06l-1.49,1.52Z"/><path class="cls-6" d="M2.35,39.35c0,.17-.06.32-.07.49a5.85,5.85,0,0,0,.07.72s-.06,0-.07-.07a2.15,2.15,0,0,1,0-1.07S2.33,39.37,2.35,39.35Z"/><path class="cls-7" d="M34.76,6a2.85,2.85,0,0,1-.73.34A1,1,0,0,1,34.76,6Z"/><path class="cls-8" d="M1.29,25.42a1.18,1.18,0,0,1-.33.67A1.37,1.37,0,0,1,1.29,25.42Z"/><path class="cls-9" d="M11.16,4.35a1.13,1.13,0,0,1-.46-.53C10.88,4,11.09,4.11,11.16,4.35Z"/><path class="cls-10" d="M36.17,19.77a1.18,1.18,0,0,1,.47-.47A1,1,0,0,1,36.17,19.77Z"/><path class="cls-11" d="M3.42,21.61a1.22,1.22,0,0,1-.39.48A.73.73,0,0,1,3.42,21.61Z"/><path class="cls-12" d="M38.23,9.75c-.17-.08-.16-.25-.2-.4A.49.49,0,0,1,38.23,9.75Z"/><path class="cls-13" d="M2.36,40.56a.36.36,0,0,1,.19.34C2.45,40.81,2.34,40.72,2.36,40.56Z"/><path class="cls-14" d="M3.89,21.15a.7.7,0,0,1-.26.28,0,0,0,0,1,0-.05l0,0C3.7,21.26,3.75,21.15,3.89,21.15Z"/><path class="cls-15" d="M2.7,22.62a.25.25,0,0,1-.14.27A.24.24,0,0,1,2.7,22.62Z"/><path class="cls-16" d="M50.9,25.09a.24.24,0,0,1,.13-.27A.24.24,0,0,1,50.9,25.09Z"/><path class="cls-17" d="M49.15,29.21a.39.39,0,0,1,.14-.32A.29.29,0,0,1,49.15,29.21Z"/><path class="cls-18" d="M3.63,21.36v.07a.34.34,0,0,1-.21.18A.34.34,0,0,1,3.63,21.36Z"/><path class="cls-8" d="M1.42,25.15a.25.25,0,0,1-.13.27A.25.25,0,0,1,1.42,25.15Z"/><path class="cls-19" d="M14.9,41.36a.29.29,0,0,1,.2-.2A.21.21,0,0,1,14.9,41.36Z"/><path class="cls-20" d="M1.76,24.48a.34.34,0,0,1-.13.27A.23.23,0,0,1,1.76,24.48Z"/><path class="cls-21" d="M47.15,31.14c0-.11.11-.13.21-.12S47.26,31.17,47.15,31.14Z"/><path class="cls-20" d="M1.63,24.75c0,.08,0,.14-.07.2l0,0,0,0A.2.2,0,0,1,1.63,24.75Z"/><path class="cls-22" d="M3,5.28a.2.2,0,0,1-.13.21A.23.23,0,0,1,3,5.28Z"/><path class="cls-20" d="M1.42,25.08A.17.17,0,0,1,1.49,25l0,0a.08.08,0,0,1,0,.11h0A0,0,0,0,1,1.42,25.08Z"/><path class="cls-8" d="M1.42,25.08h.07a.08.08,0,0,1-.07.07Z"/><path class="cls-9" d="M10.7,3.82l-.07-.07Z"/><path class="cls-9" d="M10.63,3.75l-.07-.06Z"/><path class="cls-23" d="M17.9,11.89a7.82,7.82,0,0,1,.93,1c.3.33.58.67.88,1,.74.78,1.41,1.61,2.16,2.39.34.35.66.73,1,1.11a.23.23,0,0,0,.31.08c.08.17-.1.2-.16.3-.68.7-1.36,1.4-2,2.11a.9.9,0,0,1-.52.33c-.9.06-1.8-.1-2.7-.06-1.63.06-3.25-.09-4.87-.07-.12,0-.28,0-.32-.16.85,0,1.69-.05,2.53,0s1.55,0,2.33.05c.34,0,.34,0,.34-.35v-.73c0-1.88.09-3.75.08-5.63C17.84,12.79,17.89,12.34,17.9,11.89Z"/><path class="cls-24" d="M12.56,19.89c.09.09.21.06.32.06.62,0,1.24,0,1.86,0,1,.07,2,0,3,.06a.41.41,0,0,1,.1.37c-.11.86,0,1.72-.07,2.58,0,0,0,.07,0,.11a6.3,6.3,0,0,1-.87,1c-.34.35-.66.71-1,1-.1.07-.16.21-.32.17a.38.38,0,0,0-.07-.39c-.57-.65-1.17-1.29-1.75-1.94s-.9-1-1.38-1.52-.79-.91-1.22-1.34c-.06-.06-.1-.12-.05-.2Z"/><path class="cls-25" d="M23,17.69c0-.12.19-.12.19-.25.56-.51,1-1.09,1.57-1.62.7-.71,1.39-1.43,2.08-2.15l1.71-1.77a.61.61,0,0,1,.17-.15c.1,0,.21-.08.2.09a11.56,11.56,0,0,1-.05,1.86,1.22,1.22,0,0,0,0,.27v5.92c0,.29,0,.33.32.33.79,0,1.58,0,2.37,0,1.05.06,2.1,0,3.15.07a3.3,3.3,0,0,1,.88.1l-.07,0a1,1,0,0,1-.41.09c-1.69,0-3.37-.05-5.05-.09-1,0-1.92-.14-2.88-.14a3.19,3.19,0,0,0-1-.06,1.54,1.54,0,0,1-1.36-.6c-.46-.58-1-1.1-1.48-1.66C23.19,17.87,23.05,17.8,23,17.69Z"/><path class="cls-24" d="M30.55,25.54c-.12.25-.13.26.05.45.35.37.68.77,1,1.14s.88,1,1.32,1.49l.57.64c.51.58,1,1.13,1.55,1.69.11.13.2.27.3.4a6.7,6.7,0,0,1-1.55,0c-.76,0-1.51-.11-2.28-.09s-1.72-.07-2.58-.06a2.09,2.09,0,0,0-.25,0,.11.11,0,0,1-.09-.08c.11-1.21,0-2.44.06-3.65a.81.81,0,0,1,.27-.45c.43-.42.82-.87,1.24-1.3C30.29,25.64,30.37,25.47,30.55,25.54Z"/><path class="cls-26" d="M30.55,25.54c-.14,0-.19.18-.32.22-.43-.51-.89-1-1.34-1.52a.71.71,0,0,1-.15-.53V20.89a1.79,1.79,0,0,0,0-.4.23.23,0,0,0-.07-.07c-.16-.09-.34,0-.51,0h-2c-.15,0-.34,0-.41-.17a6,6,0,0,1,1.34,0c.46,0,.93,0,1.39,0a13.37,13.37,0,0,1,1.42.11,1.22,1.22,0,0,0,.27,0c1,0,2,0,3,0,.78,0,1.57,0,2.35.07a3.74,3.74,0,0,1-.72.77c-1.15,1.19-2.32,2.37-3.48,3.56A5.32,5.32,0,0,0,30.55,25.54Z"/><path class="cls-27" d="M28.9,31.16c.57,0,1.14,0,1.72,0s1.17,0,1.76,0,1.3,0,1.95.08c.35,0,.69,0,1,0h1.28c.11,0,.22,0,.31.06-1,0-2,.06-3.05,0-1.32-.1-2.63-.09-3.95-.13-.35,0-.7-.05-1.06-.06,0,0,0,0,0,0Z"/><path class="cls-23" d="M28.9,31.16v.05a.21.21,0,0,0-.19.23v.27c0,1.84,0,3.68,0,5.53,0,.7,0,1.41-.05,2.12a.32.32,0,0,1-.22-.13c-.36-.44-.76-.84-1.13-1.26s-1-1.06-1.45-1.63c-.22-.28-.48-.53-.72-.79-.64-.69-1.26-1.41-1.9-2.11a.37.37,0,0,0-.31-.16c0-.11.05-.17.11-.25.6-.6,1.18-1.22,1.8-1.8A.68.68,0,0,1,25.2,31c1.17.09,2.33.1,3.49.16Z"/><path class="cls-25" d="M23,33.1l-.13.18c-.47.42-.89.89-1.33,1.34q-1.72,1.76-3.46,3.48c-.18.18-.3.42-.54.53s-.14-.14-.14-.25.08-.46.07-.7c0-.51,0-1,0-1.53,0-1.64.11-3.28.06-4.92,0-.43,0-.41-.39-.41-.74,0-1.48-.11-2.23-.07a.19.19,0,0,1-.18-.06.54.54,0,0,1,.44-.1,13.13,13.13,0,0,1,2.58.12,8.73,8.73,0,0,0,1,0,13.2,13.2,0,0,0,1.78.13.72.72,0,0,1,.6.22C21.81,31.75,22.42,32.43,23,33.1Z"/><path class="cls-26" d="M18.9,30.82A10.73,10.73,0,0,1,17,30.7a7.49,7.49,0,0,0-1.16,0h-1.1c-1.3-.06-2.61-.17-3.92-.14a.22.22,0,0,1-.21-.07,10.93,10.93,0,0,1,.94-1c1-1.06,2-2.1,3-3.18a8.24,8.24,0,0,0,.94-1c.12,0,.16-.17.27-.2.49.66,1.1,1.23,1.62,1.87a.71.71,0,0,1,.19.31c0,.95,0,1.91,0,2.87,0,.14,0,.29.1.4a1.88,1.88,0,0,0,.74.11c.56,0,1.12,0,1.69,0,.13,0,.32-.06.36.17a.45.45,0,0,1-.32.06C19.79,30.86,19.34,30.87,18.9,30.82Z"/><path class="cls-8" d="M1.49,25.08l0-.11.05,0C1.56,25,1.55,25.06,1.49,25.08Z"/><path class="cls-28" d="M27,20.22H25.7a.21.21,0,0,1-.18.07c-.82-.11-1.65,0-2.47-.07a17.12,17.12,0,0,0-2.15,0,1,1,0,0,1-.29,0,.07.07,0,0,1-.05-.09,16.14,16.14,0,0,0,1.17-1.17c.42-.41.79-.86,1.24-1.24.18,0,.27.11.37.23.56.62,1.13,1.23,1.68,1.86a1.08,1.08,0,0,0,.9.37c.29,0,.58,0,.86,0C26.87,20.16,27,20.14,27,20.22Z"/><path class="cls-29" d="M20.56,20.1s0,0,0,.06a1.81,1.81,0,0,1-.47.59l-2.05,2.13c-.1.1-.18.24-.35.21,0-.68,0-1.36,0-2a8.77,8.77,0,0,0,.06-1,13.37,13.37,0,0,1,1.55,0C19.72,20.12,20.14,20.09,20.56,20.1Z"/><path class="cls-30" d="M17.7,23.09a6.67,6.67,0,0,0,.84-.84c.45-.47.9-.94,1.37-1.4a4.31,4.31,0,0,1,.66-.69,1.17,1.17,0,0,1,.49-.07h1.66c.1,0,.22,0,.31.06a14.82,14.82,0,0,0,1.88.06,1.16,1.16,0,0,1,1.14.58,5.69,5.69,0,0,0,.74.81c.56.63,1.11,1.27,1.68,1.89a1.46,1.46,0,0,1,.35.66,14.82,14.82,0,0,1,0,1.76,4.17,4.17,0,0,0,0,.5,1.39,1.39,0,0,1-.45,1.29,7.65,7.65,0,0,1-1.12,1.22c-.63.64-1.28,1.25-1.88,1.92a.68.68,0,0,1-.34.21l-.1,0a2.43,2.43,0,0,1-.76,0c-.89-.1-1.79,0-2.68-.15a1.81,1.81,0,0,0-.61-.14.62.62,0,0,1-.39-.22c-.51-.48-.92-1.05-1.4-1.55s-.81-.91-1.23-1.35a1,1,0,0,1-.27-.41v-.12c-.06-.85,0-1.71,0-2.56,0-.35,0-.7,0-1.05a.65.65,0,0,1,.11-.41Z"/><path class="cls-31" d="M17.7,23.16v1.46a4.32,4.32,0,0,0,0,.88,12.32,12.32,0,0,1-.06,1.61l0,.05a8.35,8.35,0,0,1-.86-.92L16,25.41a.44.44,0,0,1-.12-.32,4.38,4.38,0,0,1,.66-.7A14,14,0,0,1,17.7,23.16Z"/><path class="cls-29" d="M25.11,31c.48-.49.95-1,1.43-1.47l1.66-1.67a1,1,0,0,0,.09-.13c.15-.14.24-.35.47-.4v3.22a1.14,1.14,0,0,1-.13.57,3.93,3.93,0,0,1-1.41,0c-.44,0-.88,0-1.32,0A5.16,5.16,0,0,1,25.11,31Z"/><path class="cls-31" d="M28.76,27.35c-.18.1-.27.31-.47.4,0-.15.13-.23.23-.31a.69.69,0,0,0,.25-.59c0-.92,0-1.84,0-2.76a9.61,9.61,0,0,1-.1-2.21c0-.37,0-.75,0-1.12a.52.52,0,0,1,.1-.4c.11.09.07.22.07.34,0,1,0,2,0,3.06a.66.66,0,0,0,.2.5c.39.41.76.84,1.13,1.25a.34.34,0,0,1,.08.25L29.11,27A3.25,3.25,0,0,0,28.76,27.35Z"/><path class="cls-27" d="M25.11,31c.5,0,1,0,1.5,0s.9.08,1.35.11h.67l.06,0s-.05.05-.08.05a9.27,9.27,0,0,1-1.58,0,3.22,3.22,0,0,0-.76,0c-.4,0-.79-.06-1.18-.07,0,0,0,0,0-.05v0Z"/><path class="cls-32" d="M28.76,20.36v3.73a2.11,2.11,0,0,0-.51-.71c-.35-.45-.76-.86-1.13-1.29a8,8,0,0,0-.79-.85,2,2,0,0,1-.38-.45c-.1-.18-.29-.28-.4-.44a.18.18,0,0,0-.15-.06h-.17c-.68,0-1.35-.12-2-.07a.18.18,0,0,1-.18-.07,21.65,21.65,0,0,1,2.67.08c.1.1.23.05.34.06h2.19c.17.09.36,0,.53.06Z"/><path class="cls-31" d="M28.76,20.35c-.18,0-.37.07-.53-.06C28.41,20.32,28.6,20.22,28.76,20.35Z"/><path class="cls-28" d="M25.08,31a.15.15,0,0,1,0,.07,17.21,17.21,0,0,0-1.3,1.26,8.85,8.85,0,0,1-.76.74c-.29-.09-.44-.35-.64-.55-.43-.46-.85-.93-1.27-1.39a.51.51,0,0,0-.46-.2c-.54.05-1.08-.09-1.62-.06a.15.15,0,0,1-.14-.07h1.71c.12,0,.23,0,.35,0a1,1,0,0,1,.47.07l2.21.08Z"/><path class="cls-32" d="M21.43,30.89h-.54c-.1-.07-.23,0-.33-.06h0c-.09-.1-.2-.06-.31-.06q-.6,0-1.2,0a9.65,9.65,0,0,1-1.42-.07,17.78,17.78,0,0,1,0-2.19c0-.27,0-.53,0-.8s0-.24.07-.35c.31.36.63.71.95,1.06.52.56,1,1.11,1.51,1.71.16.19.36.36.54.54a.39.39,0,0,0,.31.1A.44.44,0,0,1,21.43,30.89Z"/><path class="cls-31" d="M17.7,27.35c0,1.12-.12,2.23-.07,3.34-.11-.1-.07-.23-.07-.35V27.16h0c.13,0,.08.11.13.14Z"/><path class="cls-32" d="M17.69,27.29l-.13-.14a20.43,20.43,0,0,0,.07-2.35.23.23,0,0,1,.06-.18Z"/><path class="cls-26" d="M20.56,30.82c.11,0,.24,0,.33.06C20.78,30.87,20.66,30.93,20.56,30.82Z"/></g></g></g></svg>