<?xml version="1.0" encoding="utf-8"?>
<!-- Generator: Adobe Illustrator 22.0.1, SVG Export Plug-In . SVG Version: 6.00 Build 0)  -->
<svg version="1.1" id="Layer_1" xmlns="http://www.w3.org/2000/svg" xmlns:xlink="http://www.w3.org/1999/xlink" x="0px" y="0px"
	 viewBox="0 0 43.5 38" style="enable-background:new 0 0 43.5 38;" xml:space="preserve">
<style type="text/css">
	.st0{fill:#00BBEB;}
</style>
<path class="st0" d="M39.6,3.6C37,1.3,33.7,0,30.2,0c-3,0-6,0.9-8.4,2.8C16-1.6,7.6-0.7,3,4.6c-3.4,4-3.9,9.6-1.2,14h6.5l6.7-10.9
	l4.4,12.5l4.9-8.2l4.2,6.6h4c0.8,0,1.5,0.6,1.5,1.4s-0.6,1.4-1.5,1.4h-5.6l-2.5-3.9l-5.7,9.4l-4.4-12.5l-4.3,7H4L21.8,38l17.9-16.7
	C44.8,16.4,44.8,8.5,39.6,3.6z"/>
</svg>
