<?xml version="1.0" encoding="utf-8"?>
<!-- Generator: Adobe Illustrator 22.0.1, SVG Export Plug-In . SVG Version: 6.00 Build 0)  -->
<svg version="1.1" id="Layer_1" xmlns="http://www.w3.org/2000/svg" xmlns:xlink="http://www.w3.org/1999/xlink" x="0px" y="0px"
	 viewBox="0 0 142 142" style="enable-background:new 0 0 142 142;" xml:space="preserve">
<style type="text/css">
	.st0{fill:#B7ECF9;}
	.st1{fill:#67DEF9;stroke:#0DBAEC;stroke-width:2;stroke-miterlimit:10;}
</style>
<g>
	<path class="st0" d="M25.8,125.7C10.1,112.7,0,93.1,0,71.1C-0.1,31.9,31.6,0.1,70.9,0s71.1,31.6,71.1,70.9s-31.6,71.1-70.9,71.1
		c-14.9,0-28.7-4.5-40.2-12.4"/>
	<path class="st1" d="M104.8,45.9c-1.6-1.6-4.3-1.6-5.9,0L56.2,88.6L38.3,70.8c-1.6-1.6-4.3-1.6-5.9,0c-1.6,1.6-1.6,4.3,0,5.9
		l23.7,23.7l48.7-48.7C106.5,50.1,106.5,47.5,104.8,45.9z"/>
</g>
</svg>
