<?xml version="1.0" encoding="utf-8"?>
<!-- Generator: Adobe Illustrator 22.0.1, SVG Export Plug-In . SVG Version: 6.00 Build 0)  -->
<svg version="1.1" id="Layer_1" xmlns="http://www.w3.org/2000/svg" xmlns:xlink="http://www.w3.org/1999/xlink" x="0px" y="0px"
	 viewBox="0 0 14.8 16" style="enable-background:new 0 0 14.8 16;" xml:space="preserve">
<style type="text/css">
	.st0{fill:#00BBEB;}
</style>
<g id="_x32_BV0TW.tif">
	<g>
		<g>
			<path class="st0" d="M12.4,0c0.1,0,0.2,0.1,0.3,0.1c1.3,0.3,2.1,1.5,2,2.8c-0.1,0.7-0.4,1.2-0.9,1.7c-0.7,0.7-1.4,1.4-2.1,2
				c-0.7,0.7-1.4,1.4-2,2C9.2,9.3,8.6,10,7.9,10.6c-0.8,0.8-1.5,1.5-2.3,2.3c-0.5,0.5-1.4,0.6-2.1,0.2c-1-0.6-1.2-1.9-0.4-2.8
				c1.5-1.6,3.1-3.1,4.6-4.6c0.4-0.4,0.9-0.9,1.3-1.3c0.2-0.2,0.5-0.2,0.8-0.1c0.3,0.2,0.3,0.6,0,0.9C9.6,5.6,9.2,6,8.8,6.4
				c-1.6,1.6-3.1,3.1-4.7,4.7c-0.3,0.3-0.3,0.8,0.1,1C4.4,12.3,4.7,12.2,5,12c0.9-0.9,1.8-1.8,2.6-2.6c1-1,1.9-1.9,2.9-2.9
				c0.9-0.9,1.8-1.8,2.7-2.7c0.4-0.4,0.6-0.9,0.4-1.5c-0.2-0.6-0.6-1-1.2-1.1c-0.6-0.1-1,0.1-1.5,0.5c-1,1-2,2-3,3
				c-2,2-4.1,4.1-6.1,6.1c-0.6,0.6-0.9,1.3-0.7,2.2c0.2,1.2,1.2,2,2.4,2c0.7,0,1.3-0.3,1.7-0.8c0.6-0.6,1.2-1.2,1.8-1.8
				c0.5-0.5,1.1-1.1,1.6-1.6c0.6-0.6,1.2-1.2,1.8-1.7c0.6-0.6,1.2-1.2,1.8-1.8c0.5-0.5,0.9-0.9,1.4-1.4c0.2-0.2,0.4-0.2,0.6-0.1
				c0.2,0.1,0.3,0.3,0.3,0.5c0,0.2,0,0.3-0.2,0.4c-0.6,0.6-1.1,1.1-1.7,1.7c-0.5,0.5-1.1,1.1-1.6,1.6c-0.6,0.6-1.2,1.2-1.7,1.7
				c-0.5,0.5-1.1,1.1-1.6,1.6C7.1,13.8,6.6,14.4,6,15c-0.7,0.7-1.6,1.1-2.6,1c-0.9,0-1.8-0.4-2.4-1.1c-0.9-1-1.2-2.2-0.8-3.6
				c0.2-0.5,0.5-1,0.9-1.4C4,7,6.9,4.1,9.8,1.2c0.2-0.2,0.5-0.5,0.7-0.7c0.3-0.3,0.7-0.4,1.2-0.5c0,0,0.1,0,0.1,0
				C12,0,12.2,0,12.4,0z"/>
		</g>
	</g>
</g>
</svg>
