<svg xmlns="http://www.w3.org/2000/svg" viewBox="0 0 45.21 48.92"><defs><style>.cls-1{fill:#e2e2e2;}</style></defs><title>uploads</title><g id="Layer_2" data-name="Layer 2"><g id="Page_Content" data-name="Page Content"><path class="cls-1" d="M38,0l1,.25a8.05,8.05,0,0,1,6.15,8.61,8.24,8.24,0,0,1-2.6,5.27c-2.11,2.07-4.18,4.17-6.27,6.26L30.09,26.6l-5.82,5.83c-2.3,2.3-4.59,4.61-6.91,6.89a5.55,5.55,0,0,1-6.3.75,5.35,5.35,0,0,1-1.2-8.47q7.08-7.12,14.19-14.2l4-4a1.74,1.74,0,0,1,2.3-.24,1.69,1.69,0,0,1,.14,2.6c-1.22,1.23-2.45,2.45-3.67,3.67L12.41,33.84A2,2,0,0,0,12.59,37a2.09,2.09,0,0,0,2.61-.34l8.08-8.08c2.94-2.94,5.86-5.88,8.8-8.81,2.76-2.77,5.55-5.52,8.3-8.31A4.51,4.51,0,0,0,41.65,7,4.39,4.39,0,0,0,38,3.54,4.76,4.76,0,0,0,33.56,5l-9.23,9.23Q15,23.52,5.74,32.81a7.33,7.33,0,0,0,5.08,12.7,7.42,7.42,0,0,0,5.31-2.34l5.46-5.47c1.65-1.64,3.29-3.3,4.93-4.94s3.58-3.56,5.36-5.35L37.25,22c1.42-1.42,2.83-2.84,4.27-4.23a1.6,1.6,0,0,1,1.89-.27,1.56,1.56,0,0,1,1,1.45,1.59,1.59,0,0,1-.49,1.24q-2.55,2.58-5.12,5.14l-5,5-5.32,5.32-4.91,4.91c-1.76,1.76-3.49,3.54-5.27,5.27a10.52,10.52,0,0,1-8,3.08,10.18,10.18,0,0,1-7.33-3.36A10.47,10.47,0,0,1,.62,34.64a10.29,10.29,0,0,1,2.66-4.17Q16.66,17.08,30.06,3.69c.73-.73,1.47-1.45,2.26-2.1A7.43,7.43,0,0,1,35.84.1a2.93,2.93,0,0,0,.37-.1Z"/></g></g></svg>