<svg xmlns="http://www.w3.org/2000/svg" xmlns:xlink="http://www.w3.org/1999/xlink" viewBox="0 0 75.76 92.43"><defs><style>.cls-1,.cls-6{fill:none;}.cls-2{fill:#b7ecf9;}.cls-3{clip-path:url(#clip-path);}.cls-4{fill:#67def9;}.cls-4,.cls-6,.cls-7{stroke:#0dbaec;stroke-miterlimit:10;stroke-width:2px;}.cls-5{fill:#57c7e5;}.cls-7{fill:#fff;}</style><clipPath id="clip-path" transform="translate(0 0)"><path class="cls-1" d="M16.38,69.07a37.89,37.89,0,1,1,21.41,6.69,37.84,37.84,0,0,1-21.41-6.69"/></clipPath></defs><title>Asset 1</title><g id="Layer_2" data-name="Layer 2"><g id="Layer_1-2" data-name="Layer 1"><path class="cls-2" d="M13.74,67.08a37.79,37.79,0,1,1,2.78,2.1" transform="translate(0 0)"/><g class="cls-3"><path class="cls-4" d="M59.59,68.39a23,23,0,1,1-23-23A23,23,0,0,1,59.59,68.39Z" transform="translate(0 0)"/><path class="cls-5" d="M24.78,48.78s13.24,11.28,23,0c0,.49.49-2,6.86,4.9-.49-.49-17.16,16.67-35.3-1Z" transform="translate(0 0)"/><path class="cls-6" d="M13.5,68.39a23,23,0,0,1,45.92-2.78" transform="translate(0 0)"/><circle class="cls-7" cx="36.55" cy="37.99" r="15.69"/><line class="cls-6" x1="21.84" y1="43.39" x2="46.84" y2="26.23"/><line class="cls-6" x1="51.74" y1="40.94" x2="38.81" y2="31.19"/></g></g></g></svg>