<svg xmlns="http://www.w3.org/2000/svg" viewBox="0 0 20.07 28.11"><defs><style>.cls-1{fill:#f5941b;}</style></defs><title>Asset 367</title><g id="Layer_2" data-name="Layer 2"><g id="Layer_1-2" data-name="Layer 1"><path class="cls-1" d="M18.77,3.15A8.77,8.77,0,0,0,11.68,0a8.18,8.18,0,0,0-7,4.56,9,9,0,0,0,0,8.09A3.76,3.76,0,0,0,3,13,5.59,5.59,0,0,0,.12,16.82,10.09,10.09,0,0,0,2.29,25a9.1,9.1,0,0,0,6.87,3.12,9.37,9.37,0,0,0,7.65-4.34c1.31-2.12,2.31-5.78-.37-11.25a2.57,2.57,0,1,0-1.59,1.35c1.59,3.49,1.7,6.54.26,8.85a7.4,7.4,0,0,1-5.95,3.4A7.1,7.1,0,0,1,3.8,23.68,8,8,0,0,1,2.1,17.1a3.72,3.72,0,0,1,1.7-2.3,2,2,0,0,1,1.57,0,2.48,2.48,0,0,0-.14.8,2.52,2.52,0,1,0,1.61-2.33l-.16-.09a8.12,8.12,0,0,1-.24-7.7A6.17,6.17,0,0,1,11.68,2a6.8,6.8,0,0,1,5.51,2.37c1.42,1.85,1.54,5.82,1.08,9.58l.87.57C20.27,10.24,20.62,5.55,18.77,3.15Z"/></g></g></svg>